<?xml version="1.0" encoding="UTF-8" standalone="no"?>
<!-- Created with Inkscape (http://www.inkscape.org/) -->

<svg
   width="210mm"
   height="297mm"
   viewBox="0 0 210 297"
   version="1.1"
   id="svg5"
   inkscape:version="1.2.1 (9c6d41e, 2022-07-14)"
   sodipodi:docname="ryba.svg"
   xmlns:inkscape="http://www.inkscape.org/namespaces/inkscape"
   xmlns:sodipodi="http://sodipodi.sourceforge.net/DTD/sodipodi-0.dtd"
   xmlns:xlink="http://www.w3.org/1999/xlink"
   xmlns="http://www.w3.org/2000/svg"
   xmlns:svg="http://www.w3.org/2000/svg">
  <sodipodi:namedview
     id="namedview7"
     pagecolor="#505050"
     bordercolor="#ffffff"
     borderopacity="1"
     inkscape:showpageshadow="0"
     inkscape:pageopacity="0"
     inkscape:pagecheckerboard="1"
     inkscape:deskcolor="#505050"
     inkscape:document-units="mm"
     showgrid="false"
     inkscape:zoom="2.0636447"
     inkscape:cx="296.56268"
     inkscape:cy="545.63656"
     inkscape:window-width="960"
     inkscape:window-height="1025"
     inkscape:window-x="960"
     inkscape:window-y="0"
     inkscape:window-maximized="0"
     inkscape:current-layer="layer1" />
  <defs
     id="defs2">
    <linearGradient
       inkscape:collect="always"
       id="linearGradient1461">
      <stop
         style="stop-color:#ff0000;stop-opacity:1;"
         offset="0"
         id="stop1457" />
      <stop
         style="stop-color:#ff0000;stop-opacity:0;"
         offset="1"
         id="stop1459" />
    </linearGradient>
    <linearGradient
       inkscape:collect="always"
       id="linearGradient1426">
      <stop
         style="stop-color:#ffff00;stop-opacity:1;"
         offset="0"
         id="stop1422" />
      <stop
         style="stop-color:#ffff00;stop-opacity:0;"
         offset="1"
         id="stop1424" />
    </linearGradient>
    <linearGradient
       inkscape:collect="always"
       id="linearGradient1391">
      <stop
         style="stop-color:#800080;stop-opacity:1;"
         offset="0"
         id="stop1387" />
      <stop
         style="stop-color:#00ff00;stop-opacity:1"
         offset="1"
         id="stop1389" />
    </linearGradient>
    <linearGradient
       inkscape:collect="always"
       id="linearGradient1272">
      <stop
         style="stop-color:#ff0000;stop-opacity:1;"
         offset="0"
         id="stop1268" />
      <stop
         style="stop-color:#ff0000;stop-opacity:0;"
         offset="1"
         id="stop1270" />
    </linearGradient>
    <linearGradient
       inkscape:collect="always"
       xlink:href="#linearGradient1272"
       id="linearGradient1274"
       x1="70.111389"
       y1="135.87155"
       x2="86.115608"
       y2="149.65161"
       gradientUnits="userSpaceOnUse"
       gradientTransform="translate(3.482922,6.7585759)" />
    <linearGradient
       inkscape:collect="always"
       xlink:href="#linearGradient1391"
       id="linearGradient1393"
       x1="158.01207"
       y1="149.23431"
       x2="107.86311"
       y2="147.2917"
       gradientUnits="userSpaceOnUse"
       gradientTransform="translate(-3.8538312,-0.37166046)" />
    <linearGradient
       inkscape:collect="always"
       xlink:href="#linearGradient1426"
       id="linearGradient1428"
       x1="129.02406"
       y1="194.20465"
       x2="124.44256"
       y2="185.64001"
       gradientUnits="userSpaceOnUse"
       gradientTransform="translate(-0.18125236,1.3861948)" />
    <linearGradient
       inkscape:collect="always"
       xlink:href="#linearGradient1461"
       id="linearGradient1463"
       x1="167.11658"
       y1="135.1918"
       x2="183.52557"
       y2="144.29747"
       gradientUnits="userSpaceOnUse"
       gradientTransform="translate(4.6942343,-5.2670941)" />
  </defs>
  <g
     inkscape:label="Warstwa 1"
     inkscape:groupmode="layer"
     id="layer1">
    <path
       style="fill:#000000;stroke-width:0.264583"
       id="path222"
       d="m 74.698608,124.86455 c 1.693307,-1.25958 4.297952,-3.54419 1.341186,-5.51849 -0.48241,-0.32212 -1.160045,-0.0143 -1.740064,-0.0215 -1.25095,0.3929 -2.356472,1.09043 -3.409315,1.85377 -0.786424,0.47336 -1.455169,1.14269 -2.239174,1.61238 -0.752904,0.42703 -1.376529,1.03406 -2.071251,1.54216 -0.754433,0.54989 -1.582423,0.97064 -2.404668,1.40529 -0.992349,0.61946 -1.874375,1.40106 -2.765862,2.15556 -0.878004,0.61181 -1.715669,1.26123 -2.473499,2.01816 -0.829707,0.92701 -1.497383,1.97421 -2.092757,3.06201 -0.417136,0.77684 -0.909349,1.52047 -1.384249,2.27034 -0.751962,1.13093 -1.503675,2.23698 -2.032485,3.49301 -0.329813,1.2578 -0.85037,2.42863 -1.49462,3.55478 -0.797867,1.17805 -1.34665,2.45048 -1.65023,3.83616 -0.203346,1.18398 -0.519285,2.34138 -0.699429,3.53296 -0.223737,1.13156 -0.390697,2.27067 -0.484018,3.42014 -0.07514,1.16768 -0.06963,2.3384 -0.07156,3.50788 -2.35e-4,1.24877 0.0021,2.49754 0.0032,3.74631 7.94e-4,1.08966 0.0011,2.17932 0.0013,3.26898 6.6e-5,1.07494 3.7e-5,2.14988 2.6e-5,3.22483 -0.04081,1.40464 0.05006,2.80448 0.361543,4.17434 0.675206,1.69189 1.928013,3.04777 3.078318,4.43012 0.986393,1.50024 2.417781,2.54449 3.847777,3.58466 1.870708,1.24026 3.656402,1.77039 5.857402,2.03848 2.253837,0.24215 4.482777,0.68475 6.700144,1.14867 2.350172,0.54355 4.715986,0.94413 7.122419,1.10178 1.994194,0.0995 3.991256,0.10799 5.987436,0.10793 1.476521,-0.0612 2.924424,0.27201 4.381233,0.45576 1.497031,0.16812 3.003169,0.22361 4.508333,0.25141 1.536116,0.0359 3.069209,0.0127 4.602343,-0.0868 1.292219,-0.0759 2.505699,-0.54928 3.782491,-0.71096 1.502812,-0.17615 3.016342,-0.0299 4.519772,0.0642 1.65148,0.10159 3.30645,0.12536 4.96055,0.14342 1.9912,0.0323 3.97938,0.0161 5.96806,-0.0864 2.21273,-0.18828 4.37833,-0.76858 6.53519,-1.28051 3.04032,-0.6675 6.07502,-1.41342 9.04934,-2.33465 1.60396,-0.46352 3.0934,-1.19733 4.52794,-2.03711 1.29655,-0.7553 2.43995,-1.72716 3.54638,-2.7321 1.19107,-1.08771 2.1977,-2.35373 3.22484,-3.59183 1.15715,-1.38255 2.11481,-2.92054 3.27042,-4.30202 1.00271,-1.27749 2.18312,-2.39195 3.26581,-3.59685 0.99479,-1.08706 2.07693,-2.08903 3.17467,-3.07052 0.80607,-0.6956 1.52269,-1.48421 2.28911,-2.22196 0.52069,-0.16993 1.20338,-0.0969 1.74732,-0.11535 1.11072,0.0233 2.29629,-0.14904 3.37699,0.20544 0.28043,0.092 0.77039,0.40432 1.00868,0.54614 0.6221,0.4309 1.12718,0.99799 1.3665,1.72352 0.24613,1.05266 0.36621,2.11846 0.63439,3.16797 0.38122,1.66539 0.9794,3.26343 1.54692,4.87117 0.66696,1.60995 1.08799,3.3048 1.82394,4.8853 0.47233,0.87349 0.75047,1.82703 1.12891,2.74409 0.41341,1.09985 1.02815,2.08787 1.73579,3.01816 0.78124,0.98839 1.5792,1.99758 2.59813,2.75697 0.27387,0.20411 0.57129,0.37455 0.85693,0.56183 2.0314,0.93906 4.1044,1.17491 6.30339,0.90691 1.74461,-0.40811 3.65927,-0.86351 5.09076,-2.01548 0.3777,-0.30395 0.69927,-0.67169 1.0489,-1.00754 2.16995,-2.3836 4.23618,-4.85525 6.04706,-7.52327 1.42599,-2.10402 2.29553,-4.48965 2.98191,-6.91809 0.50114,-2.28569 0.88666,-4.61429 1.06032,-6.94877 0.0745,-2.04345 -0.0319,-4.08545 -0.20401,-6.12083 -0.18834,-2.40415 -0.63304,-4.77831 -0.89924,-7.17519 -0.0466,-0.3491 -0.0789,-0.70043 -0.13995,-1.0473 -0.0275,-0.15632 -0.43239,-1.98709 -0.47198,-2.18667 -0.21508,-1.0842 -0.3551,-2.17576 -0.48847,-3.27222 -0.13516,-2.19677 -0.44564,-4.36949 -0.89343,-6.52332 -0.49577,-1.96644 -0.66338,-3.98197 -0.76287,-6.0003 -0.085,-2.3099 -0.0768,-4.62192 -0.0768,-6.933 -0.0512,-2.10132 -0.1303,-4.19261 -0.58926,-6.2473 -0.54522,-1.9447 -1.22113,-3.85632 -2.17113,-5.64124 -0.68809,-1.25765 -1.69231,-2.2173 -2.82662,-3.06534 -0.92996,-0.75338 -2.03447,-1.1451 -3.12513,-1.58945 -1.03788,-0.46935 -2.15004,-0.65598 -3.27483,-0.75855 -1.15791,-0.0744 -2.31925,-0.0615 -3.47891,-0.0607 -0.97994,0.0674 -1.98672,-0.0999 -2.96218,0.0499 -0.30071,0.0462 -0.59479,0.12824 -0.89219,0.19236 -1.14612,0.35701 -2.29906,0.69361 -3.43902,1.06993 -1.60734,0.51406 -2.48464,1.69172 -3.43394,2.99387 -1.17732,1.58529 -1.50991,3.56865 -2.02122,5.43222 -0.52908,1.85397 -0.8572,3.75544 -1.03355,5.67316 -0.1104,1.45699 -0.11134,2.9192 -0.0434,4.37777 0.053,1.88116 0.30972,3.7317 0.65334,5.57849 0.19219,1.09927 0.51255,2.16785 0.66817,3.27361 -0.1562,-0.77952 0.12239,0.6193 0.0216,0.49042 -0.11584,-0.14811 0.0553,-0.31102 -0.29753,0.0156 -0.46313,0.44449 -0.96676,0.8458 -1.53495,1.147 -0.49093,0.19885 -1.02913,0.20156 -1.55066,0.22677 -0.2612,-0.002 -2.03093,0.0922 -2.04996,-0.0709 -0.60802,-0.2769 -1.17856,-0.62853 -1.75474,-0.96531 -0.84328,-0.42376 -1.65565,-0.89939 -2.47285,-1.37453 -0.94416,-0.49069 -1.83052,-1.08103 -2.73305,-1.64218 -0.78648,-0.44247 -1.41028,-1.09456 -2.07907,-1.68904 -1.13884,-0.8732 -2.29754,-1.71848 -3.42511,-2.60797 -1.46349,-1.28737 -3.20261,-2.1869 -4.77119,-3.32819 -1.01282,-0.76473 -2.09142,-1.43359 -3.16921,-2.10092 -1.17565,-0.78394 -2.46813,-1.36675 -3.80596,-1.80983 -0.89831,-0.38283 -1.85692,-0.5267 -2.80273,-0.7275 -0.97462,-0.14498 -1.91419,-0.4207 -2.86088,-0.68436 -1.7066,-0.522 -3.42591,-0.9758 -5.1831,-1.2931 -1.52635,-0.15406 -3.01933,-0.50593 -4.52402,-0.78933 -1.86401,-0.26124 -3.75318,-0.25452 -5.63166,-0.2731 -1.87863,-0.0119 -3.75732,-0.006 -5.63597,-0.004 -1.969,0.002 -3.938,0.003 -5.907005,0.003 -1.369565,2.6e-4 -2.739128,2.6e-4 -4.108693,2.6e-4 -1.494137,-2e-5 -2.988276,-3e-5 -4.482412,-4e-5 -1.702057,-0.0465 -3.398369,0.0612 -5.076071,0.34741 -1.659567,0.26326 -3.287792,0.67481 -4.906457,1.11976 -1.200965,0.28309 -2.363441,0.66662 -3.52194,1.08408 -1.359914,0.50413 -2.340124,1.60714 -3.447516,2.49041 -2.202116,1.77498 0.308092,4.88924 2.510208,3.11426 v 0 c 0.756139,-0.6142 1.449311,-1.36755 2.297414,-1.84304 1.059939,-0.38431 2.122551,-0.73391 3.224022,-0.98935 1.494645,-0.4126 2.997578,-0.79429 4.530826,-1.03551 1.44921,-0.25961 2.918695,-0.32309 4.38949,-0.28805 1.494139,1e-5 2.988278,2e-5 4.482415,4e-5 1.369877,10e-6 2.739755,0 4.109632,-2.6e-4 1.970187,-5.3e-4 3.940367,-10e-4 5.910557,-0.003 1.86405,-0.002 3.72813,-0.008 5.59215,0.004 1.64439,0.0161 3.29639,0.0103 4.93157,0.20435 1.51613,0.28479 3.02065,0.64154 4.55851,0.79566 1.63459,0.28967 3.22854,0.72678 4.81566,1.20927 1.03593,0.28804 2.06773,0.58226 3.13182,0.74968 0.80218,0.16014 1.60859,0.28154 2.36688,0.61244 1.03894,0.32842 2.03133,0.80098 2.93782,1.40705 0.99704,0.61713 1.99654,1.23303 2.93219,1.94223 1.53043,1.09952 3.20422,1.99227 4.63677,3.2267 1.06602,0.84043 2.15126,1.6535 3.24455,2.45675 0.83921,0.74597 1.64164,1.54379 2.62853,2.09887 0.93622,0.57865 1.85333,1.19179 2.83077,1.70086 0.81372,0.47293 1.62984,0.94233 2.4665,1.37084 0.81443,0.47493 1.62233,0.97353 2.50858,1.30629 0.29478,0.0804 0.58427,0.18362 0.88435,0.24119 0.86108,0.16521 1.76539,-0.005 2.63258,0.029 1.13609,-0.0604 2.27082,-0.18235 3.29308,-0.72719 0.89349,-0.50917 1.7231,-1.11418 2.44963,-1.84621 1.06658,-1.13019 1.65142,-2.27645 1.37382,-3.87097 -0.16965,-1.15962 -0.47358,-2.28646 -0.69496,-3.43598 -0.31126,-1.67032 -0.54972,-3.33971 -0.59057,-5.04246 -0.0666,-1.27275 -0.0556,-2.54943 0.032,-3.82131 0.14904,-1.68262 0.44389,-3.34973 0.90741,-4.97562 0.1026,-0.37437 0.20521,-0.74875 0.30782,-1.12312 0.0884,-0.34007 0.1723,-0.68131 0.2651,-1.02018 0.10468,-0.38227 0.17973,-0.77479 0.32301,-1.14433 0.11873,-0.30619 0.32221,-0.57647 0.50052,-0.84682 0.43165,-0.59273 0.74412,-1.2867 1.46003,-1.55275 1.0399,-0.34668 2.09564,-0.64434 3.13822,-0.9831 0.90898,-0.32763 1.95633,-0.0137 2.89907,-0.12583 1.04099,-7.9e-4 2.08324,-0.0122 3.12307,0.0451 0.73412,0.0624 1.45421,0.15953 2.12781,0.48223 0.78296,0.31501 1.57114,0.54159 2.23675,1.09 0.67144,0.49702 1.28915,1.01262 1.69821,1.76237 0.8072,1.44833 1.30162,3.04658 1.78798,4.62424 0.41116,1.75777 0.418,3.55999 0.4893,5.35876 6e-5,2.37745 -0.008,4.75589 0.0818,7.13206 0.11209,2.22593 0.30403,4.44927 0.84248,6.61936 0.42951,2.0435 0.70736,4.10573 0.83837,6.19018 0.14943,1.21831 0.31046,2.42958 0.5497,3.63431 0.12447,0.62677 0.30449,1.24212 0.41674,1.87119 0.0566,0.31734 0.086,0.63894 0.12903,0.9584 0.26376,2.36186 0.6965,4.70205 0.88894,7.07012 0.15559,1.83291 0.25472,3.67083 0.19898,5.51135 -0.12244,2.06255 -0.52205,4.11745 -0.92128,6.14155 -0.55906,2.01723 -1.26592,4.00593 -2.44279,5.75506 -1.66495,2.46786 -3.58592,4.73791 -5.57565,6.94969 -0.26307,0.29409 -0.51236,0.63407 -0.8657,0.83506 -0.9162,0.52118 -1.98272,0.79778 -2.99679,1.04356 -1.20634,0.2287 -2.44631,-0.0101 -3.61492,-0.33605 -0.99388,-0.56024 -1.70739,-1.46255 -2.39694,-2.35262 -0.49987,-0.65596 -0.94558,-1.34123 -1.22339,-2.12708 -0.40756,-0.97731 -0.70586,-1.99949 -1.21264,-2.93221 -0.70984,-1.4341 -1.00231,-3.03904 -1.66334,-4.49674 -0.52871,-1.49776 -1.09377,-2.98332 -1.4449,-4.53604 -0.31859,-1.22883 -0.37314,-2.50803 -0.81539,-3.70862 -0.68031,-1.52659 -1.64583,-2.80046 -3.10492,-3.6765 -0.89187,-0.48272 -1.17414,-0.69495 -2.18929,-0.98059 -1.39228,-0.39176 -2.8681,-0.2877 -4.29355,-0.27847 -1.58077,0.0588 -3.1525,0.0958 -4.37904,1.23138 -0.73102,0.70406 -1.41569,1.45508 -2.18138,2.12199 -1.20757,1.08049 -2.39609,2.18597 -3.48854,3.38428 -1.11261,1.24923 -2.34149,2.39299 -3.37028,3.7184 -1.13808,1.3928 -2.13183,2.89552 -3.2639,4.29414 -0.90775,1.09419 -1.7906,2.21989 -2.83773,3.18668 -0.9002,0.82009 -1.8231,1.62327 -2.87863,2.24089 -1.17108,0.68834 -2.38135,1.29731 -3.69585,1.66903 -2.88241,0.90752 -5.83749,1.60448 -8.78521,2.26205 -4.13571,0.99037 1.09029,-0.24491 -2.25893,0.50386 -1.17724,0.2632 -2.33704,0.64714 -3.55531,0.67299 -1.90538,0.0988 -3.81017,0.11198 -5.71805,0.0813 -1.5853,-0.0172 -3.17149,-0.039 -4.75431,-0.13585 -1.76521,-0.1104 -3.54195,-0.2622 -5.304857,-0.036 -1.186203,0.16678 -2.322673,0.52413 -3.507938,0.68349 -1.421937,0.0936 -2.843596,0.11192 -4.268428,0.079 -1.363945,-0.0247 -2.72883,-0.0726 -4.085777,-0.22125 -1.621595,-0.20015 -3.23291,-0.56448 -4.877147,-0.4866 -1.910924,1.2e-4 -3.822663,-0.007 -5.731796,-0.0998 -2.217861,-0.138 -4.393562,-0.52943 -6.559552,-1.02536 -2.335541,-0.48763 -4.683511,-0.9506 -7.057173,-1.20657 -1.446427,-0.15642 -2.726756,-0.4964 -3.966387,-1.3004 -1.173033,-0.85254 -2.341166,-1.65362 -3.125653,-2.90831 -0.776862,-0.93319 -1.550895,-1.87495 -2.273559,-2.84683 -0.328814,-1.01579 -0.197578,-2.14904 -0.240752,-3.19875 1e-5,-1.07509 3.9e-5,-2.15018 -2.7e-5,-3.22527 -1.11e-4,-1.0908 -2.64e-4,-2.1816 -0.0013,-3.2724 -0.0011,-1.24531 -0.0034,-2.49062 -0.0032,-3.73593 0.0019,-1.06538 -0.0044,-2.13182 0.05885,-3.1958 0.08301,-1.05966 0.252137,-2.10661 0.453181,-3.15014 0.16224,-1.11391 0.471347,-2.19331 0.657818,-3.30061 0.190539,-0.99114 0.659913,-1.84628 1.215837,-2.68574 0.716161,-1.27391 1.35972,-2.59096 1.717871,-4.01536 0.402529,-1.05295 1.139512,-1.90705 1.711409,-2.86893 0.519771,-0.82588 1.033145,-1.65251 1.516452,-2.4958 0.412818,-0.76819 0.878686,-1.50336 1.437753,-2.17479 0.645237,-0.69297 1.462715,-1.17599 2.198855,-1.76248 0.672568,-0.57007 1.345649,-1.14379 2.050885,-1.67205 1.001456,-0.53001 2.003203,-1.05748 2.919654,-1.7301 0.62675,-0.47 1.203378,-1.00897 1.879856,-1.40848 0.814957,-0.55299 1.578404,-1.17955 2.400618,-1.72403 0.656778,-0.48154 1.332473,-0.938 2.100442,-1.22615 -0.336309,-0.0732 -0.771332,0.0293 -1.00893,-0.21967 -1.254411,-1.31475 -1.191874,-1.50745 -0.659781,-2.57945 0.01762,-0.0355 0.0122,0.0882 -0.01384,0.11808 -0.330515,0.37928 -0.85209,0.76159 -1.233384,1.06585 -2.329566,1.60406 -0.06109,4.89857 2.268479,3.29451 z" />
    <path
       style="fill:#000000;stroke-width:0.264583"
       id="path224"
       d="m 86.82384,118.99951 c 0.02683,0.0288 0.0889,0.0479 0.0805,0.0863 -0.0072,0.0332 -0.108193,-0.0232 -0.101587,0.0102 0.11706,0.59152 0.419537,1.13066 0.627113,1.6968 0.309068,0.84295 0.39406,1.11208 0.672925,1.93963 0.29972,1.14292 0.946314,2.13083 1.462659,3.1763 0.125257,0.2536 0.436682,1.02773 0.531972,1.26012 0.557588,1.24696 1.119438,2.50084 1.433554,3.83519 0.393761,1.49214 0.946354,2.92256 1.660642,4.28788 0.427336,0.8789 0.597585,1.83908 0.870905,2.7698 0.448119,1.31128 0.672528,2.66841 0.823598,4.04094 0.271221,1.74542 0.566605,3.4794 0.713845,5.24134 0.21185,1.7176 0.36975,3.43869 0.45452,5.16713 0.06486,1.49657 0.06171,2.99497 0.06383,4.49262 2.65e-4,1.52018 -0.0019,3.04036 -0.003,4.56055 -0.02193,1.40905 0.04501,2.82062 -0.04141,4.22768 -0.09373,1.25447 -0.203055,2.5068 -0.450393,3.74135 -0.341553,1.15831 -0.657778,2.32432 -0.935453,3.49959 -0.232825,1.07304 -0.595032,2.12122 -1.024845,3.13148 -0.308578,0.63547 -0.546764,1.29858 -0.799377,1.957 -1.010902,2.64158 2.724861,4.07121 3.735763,1.42963 v 0 c 0.236217,-0.61861 0.45824,-1.24074 0.751006,-1.8365 0.50767,-1.21849 0.947878,-2.47352 1.230824,-3.76431 0.287819,-1.22554 0.636595,-2.43492 0.967695,-3.64919 0.271795,-1.41524 0.422013,-2.8456 0.518364,-4.28317 0.0785,-1.48237 0.038,-2.96665 0.0478,-4.45074 0.001,-1.52302 0.003,-3.04604 0.003,-4.56906 -0.002,-1.56152 2.4e-4,-3.12379 -0.0687,-4.68414 -0.08814,-1.77482 -0.243504,-3.54318 -0.463859,-5.30668 -0.153329,-1.79726 -0.434848,-3.5701 -0.724382,-5.34877 -0.181747,-1.60635 -0.448805,-3.19791 -0.964321,-4.73531 -0.354026,-1.17487 -0.577565,-2.39254 -1.162222,-3.48746 -0.568206,-1.0829 -1.007438,-2.21419 -1.322565,-3.39889 -0.390753,-1.51546 -0.953177,-2.9729 -1.615826,-4.39019 -0.247899,-0.60054 -0.426511,-1.0602 -0.716106,-1.64721 -0.41475,-0.84071 -0.958889,-1.6202 -1.18736,-2.54543 -0.359748,-1.06557 -0.722029,-2.13099 -1.137422,-3.17658 -0.366009,-0.92129 -0.716479,-1.87403 -1.546196,-2.4887 -2.270371,-1.6868 -4.655868,1.52399 -2.385497,3.2108 z" />
    <path
       style="fill:#000000;stroke-width:0.264583"
       id="path226"
       d="m 108.13445,114.90487 c 0.0871,-0.59457 0.35626,-1.13731 0.62276,-1.66834 0.55142,-0.70697 1.24424,-1.28361 1.95082,-1.82848 0.86072,-0.67506 1.7281,-1.3307 2.64969,-1.91942 1.32805,-0.59335 2.51546,-1.38642 3.65696,-2.28245 1.16162,-0.81095 2.31253,-1.63345 3.40379,-2.53758 0.15185,-0.13243 0.29265,-0.27872 0.45557,-0.39727 0.21508,-0.1565 0.47794,-0.23384 0.71268,-0.35894 0.5847,-0.3116 1.14957,-0.64086 1.70945,-0.99506 1.11464,-0.86988 2.35646,-1.52703 3.58147,-2.21932 0.59261,-0.39063 1.1709,-0.759028 1.8836,-0.838848 0.61483,-0.0113 1.05748,0.273978 1.59315,0.535398 0.55871,0.27708 1.11112,0.58169 1.41621,1.14572 0.27721,0.36601 0.3409,0.76124 0.38466,1.20113 -0.0196,0.4155 -0.29779,0.77203 -0.51113,1.11433 -0.43368,0.52196 -0.76409,1.19611 -1.30454,1.61891 -0.44371,0.39479 -0.94266,0.70987 -1.44538,1.02105 -0.7337,0.50651 -1.45438,1.03714 -2.1458,1.60057 -0.80547,0.6963 -1.55308,1.45565 -2.30361,2.20982 -0.78236,0.82013 -1.32711,1.82277 -1.76979,2.85702 -0.35607,0.96169 -0.53404,1.97009 -0.73951,2.96996 -0.5644,2.77153 3.35513,3.5697 3.91952,0.79818 v 0 c 0.15108,-0.74716 0.2827,-1.49815 0.5113,-2.22737 0.22372,-0.5641 0.51692,-1.1152 0.91378,-1.5763 0.65804,-0.66129 1.31277,-1.32756 2.01277,-1.94497 0.54504,-0.45792 1.13303,-0.86574 1.70673,-1.28587 0.7235,-0.4479 1.43187,-0.91911 2.06398,-1.49299 0.76183,-0.73884 1.40737,-1.59102 1.99896,-2.47093 0.67347,-1.12503 1.20109,-2.299 1.06658,-3.64775 -0.12936,-1.05406 -0.40075,-2.05876 -1.01653,-2.942703 -0.77117,-1.118272 -1.75969,-1.978379 -3.00583,-2.543492 -1.31421,-0.63971 -2.4913,-1.064527 -3.98156,-0.888791 -1.16834,0.209079 -2.24074,0.617672 -3.2173,1.30656 -1.28391,0.727382 -2.58915,1.417217 -3.75964,2.326333 -1.08685,0.697563 -2.3155,1.182323 -3.28523,2.048353 -1.06314,0.8853 -2.19995,1.66963 -3.32477,2.47365 -0.50941,0.40376 -1.00864,0.81656 -1.57688,1.13694 -0.48466,0.27325 -0.61384,0.29309 -1.13745,0.56707 -0.21017,0.10997 -0.4134,0.23274 -0.6201,0.34911 -1.02566,0.65565 -1.99504,1.38146 -2.95236,2.1332 -1.17274,0.91875 -2.31394,1.90606 -3.07717,3.20686 -0.53451,1.08537 -1.00128,2.2189 -1.03982,3.44671 0,2.8284 3.99997,2.8284 3.99997,0 z" />
    <path
       style="fill:#000000;stroke-width:0.264583"
       id="path228"
       d="m 127.4542,180.14077 c 0.64372,0.91453 1.5118,1.63613 2.24055,2.47313 0.3638,0.41784 0.64648,0.89994 0.96512,1.35316 1.2763,1.92995 2.63808,3.80229 3.66251,5.88171 0.49741,1.06647 0.71236,2.21247 0.8002,3.37642 0.0504,0.9346 0.0343,1.87114 0.027,2.8066 -0.047,0.5458 0.10637,1.18776 -0.17524,1.68301 -0.16455,0.52837 -0.50629,0.88058 -0.88958,1.25284 -0.64838,0.69253 -1.33309,1.37725 -2.13865,1.88637 -0.0306,0.01 -0.34478,0.20492 -0.44376,0.13388 -0.0387,-0.0278 0.13511,-0.0728 0.0987,-0.10363 -0.0779,-0.0658 -0.18716,-0.0813 -0.28074,-0.12201 -0.717,-0.27078 -1.311,-0.71559 -1.94346,-1.13112 -0.63179,-0.49739 -1.14342,-1.12813 -1.70428,-1.70212 -0.65612,-0.72656 -1.21656,-1.53984 -1.79341,-2.33074 -0.78604,-0.94572 -1.46809,-1.94777 -2.05341,-3.02589 -0.53947,-1.06318 -1.00282,-2.16579 -1.2744,-3.32819 -0.13024,-0.98377 -0.5361,-1.89945 -0.78699,-2.85379 -0.11453,-0.80477 -0.11479,-1.62004 -0.12455,-2.43119 -0.007,-0.89292 -0.002,-1.78589 6e-5,-2.67882 0.007,-2.8284 -3.99251,-2.83893 -3.99996,-0.0105 v 0 c -0.002,0.91281 -0.007,1.82563 2.3e-4,2.73843 0.0143,1.14265 0.0173,2.29594 0.26074,3.41811 0.25012,0.92091 0.62781,1.8077 0.76207,2.75594 0.36919,1.49856 0.93393,2.93494 1.65,4.30317 0.67214,1.23088 1.4393,2.3915 2.3364,3.47246 0.69258,0.94656 1.36465,1.91938 2.16996,2.77438 0.76512,0.77292 1.45519,1.6357 2.3678,2.24615 0.85248,0.55443 1.68735,1.12161 2.64183,1.49531 1.66485,0.64464 2.8081,0.6308 4.3402,-0.29442 0.99182,-0.68082 1.91436,-1.46142 2.71921,-2.3587 0.75738,-0.74991 1.41778,-1.56918 1.78563,-2.58513 0.39159,-1.02596 0.52651,-2.07444 0.47548,-3.17253 0.008,-1.05266 0.025,-2.10665 -0.0397,-3.15801 -0.13985,-1.6696 -0.47542,-3.30972 -1.20344,-4.83258 -1.12552,-2.25952 -2.57137,-4.31958 -3.97796,-6.41123 -0.48068,-0.6793 -0.84739,-1.23428 -1.39183,-1.8623 -0.59831,-0.69017 -1.32121,-1.27665 -1.85741,-2.02454 -1.6733,-2.28034 -4.89818,0.0861 -3.22488,2.36641 z" />
    <path
       style="fill:#000000;stroke-width:0.264583"
       id="path230"
       d="m 108.47828,179.88054 c -0.36375,1.85758 -1.00723,3.64085 -1.49287,5.46803 -0.3441,1.58653 -0.70514,3.16774 -0.91192,4.77908 -0.204,1.37585 -0.0899,2.28519 0.59612,3.51904 0.57444,0.97033 1.43756,1.65239 2.32909,2.30808 0.88044,0.62431 1.83116,1.11683 2.83023,1.51778 1.15678,0.40507 2.36821,0.58216 3.51845,1.005 0.83631,0.4317 1.62136,0.95624 2.40542,1.47566 1.00187,0.70162 2.12442,1.0005 3.32877,1.04494 0.72631,-0.008 1.3997,-0.22567 2.06086,-0.50244 2.5876,-1.14202 0.97253,-4.80144 -1.61507,-3.65942 v 0 c -0.15396,0.0839 -0.30539,0.15431 -0.48522,0.16208 -0.31648,0.01 -0.76507,-0.13472 -1.08023,-0.37977 -1.04733,-0.69383 -2.09979,-1.40016 -3.25528,-1.90299 -1.1297,-0.4032 -2.29211,-0.6459 -3.44244,-0.97666 -0.67974,-0.23679 -1.29362,-0.61652 -1.89562,-1.00652 -0.46486,-0.34188 -0.95025,-0.63935 -1.26633,-1.13923 -0.20538,-0.22482 0.0518,0.0176 -0.0819,0.0614 -0.11285,0.037 0.0277,-0.96961 0.0214,-1.02409 0.17917,-1.43675 0.51667,-2.84266 0.81065,-4.259 0.5222,-1.9849 1.23706,-3.91871 1.58863,-5.94641 0.38506,-2.80208 -3.57767,-3.34663 -3.96273,-0.54455 z" />
    <path
       style="fill:#000000;stroke-width:0.264583"
       id="path232"
       d="m 160.98801,133.41674 c -0.64785,1.0829 -1.19438,2.22108 -1.65592,3.39385 -0.59689,1.60975 -0.77478,3.30779 -0.86316,5.00842 -0.0568,1.4127 -0.047,2.82683 -0.0436,4.24032 0.005,1.67653 0.007,3.35306 0.009,5.0296 0.001,1.44444 0.001,2.88888 0.001,4.33331 7e-5,2.82841 4.00004,2.82831 3.99998,-9e-5 v 0 c -4e-5,-1.44564 5e-5,-2.89128 -10e-4,-4.33691 -0.002,-1.67848 -0.004,-3.35695 -0.009,-5.03542 -0.003,-1.34266 -0.0131,-2.68592 0.0385,-4.0279 0.0633,-1.28079 0.16687,-2.56411 0.60418,-3.78189 0.3774,-1.03496 0.91199,-2.00669 1.45995,-2.96075 1.31702,-2.50306 -2.22285,-4.36561 -3.53987,-1.86254 z" />
    <path
       style="fill:#ffd42a;stroke-width:0.969159"
       d="m 338.7211,679.74602 c -6.12993,-0.33201 -20.74001,-1.0767 -32.46683,-1.65488 -24.84183,-1.22481 -26.63031,-1.42673 -44.58616,-5.03367 -7.46519,-1.49959 -17.1756,-3.21979 -21.57868,-3.82266 -15.06203,-2.06227 -21.47426,-5.89308 -32.33157,-19.31558 l -6.74284,-8.33592 0.33717,-34.88973 c 0.39087,-40.44556 1.46442,-48.27837 8.35336,-60.94739 2.0617,-3.79156 4.53467,-9.07435 5.49549,-11.73954 0.96082,-2.66519 5.44712,-10.87355 9.96956,-18.2408 7.63872,-12.44383 8.84817,-13.8967 17.03211,-20.46014 4.84522,-3.88582 10.33592,-7.83661 12.20155,-8.77954 1.86563,-0.94293 6.66297,-4.16534 10.66075,-7.1609 4.72869,-3.54324 8.28469,-5.49123 10.17617,-5.57453 1.59911,-0.0704 3.68937,-0.17946 4.64502,-0.24229 2.46924,-0.16235 10.89897,-8.32115 12.42266,-12.0234 2.31631,-5.62816 7.63003,-8.41536 23.75301,-12.45912 8.11593,-2.03553 8.30952,-2.0402 10.01293,-0.24131 0.95535,1.00889 3.06589,5.54138 4.69009,10.0722 1.62421,4.53082 4.78344,12.16295 7.02054,16.96029 2.23709,4.79733 5.53642,13.19635 7.33183,18.66449 1.79541,5.46813 4.11436,11.60815 5.15322,13.64449 8.15887,15.99272 13.21031,57.15244 12.43902,101.3545 -0.45017,25.79809 -0.51137,26.447 -3.57227,37.87767 -1.71285,6.39645 -4.26394,14.4647 -5.6691,17.92944 -1.40516,3.46475 -2.79039,8.26209 -3.07827,10.66075 l -0.52343,4.36122 z"
       id="path449"
       transform="scale(0.26458333)" />
    <path
       style="fill:url(#linearGradient1274);fill-opacity:1;stroke-width:0.256423"
       d="m 89.161209,179.71711 c -1.621877,-0.0879 -5.487461,-0.28488 -8.590182,-0.43785 -6.572734,-0.32407 -7.045936,-0.37749 -11.796754,-1.33183 -1.975165,-0.39677 -4.544378,-0.8519 -5.709359,-1.01141 -3.985162,-0.54564 -5.681732,-1.55921 -8.554395,-5.11058 l -1.784043,-2.20555 0.08921,-9.23124 c 0.103417,-10.70122 0.387461,-12.77365 2.210159,-16.12566 0.545492,-1.00319 1.199799,-2.40092 1.454015,-3.10609 0.254217,-0.70516 1.441218,-2.87696 2.63778,-4.82621 2.021078,-3.29243 2.341078,-3.67684 4.506412,-5.41341 1.281965,-1.02813 2.734712,-2.07344 3.228327,-2.32292 0.493615,-0.24949 1.762911,-1.10208 2.820657,-1.89466 1.251132,-0.93748 2.191991,-1.45289 2.692445,-1.47492 0.423098,-0.0186 0.976145,-0.0475 1.228995,-0.0641 0.653319,-0.043 2.883685,-2.20164 3.286828,-3.18119 0.612857,-1.48912 2.018779,-2.22657 6.284651,-3.29648 2.14734,-0.53856 2.19856,-0.5398 2.649254,-0.0638 0.25277,0.26693 0.811183,1.46615 1.24092,2.66493 0.429739,1.19878 1.265618,3.21812 1.857518,4.48741 0.591896,1.2693 1.464844,3.49154 1.93988,4.93831 0.475035,1.44678 1.088591,3.07133 1.363456,3.61011 2.158701,4.23141 3.495228,15.12158 3.291157,26.81671 -0.119107,6.82575 -0.1353,6.99744 -0.945163,10.0218 -0.453192,1.69239 -1.128168,3.82712 -1.499949,4.74383 -0.371782,0.91672 -0.738291,2.18601 -0.814459,2.82066 l -0.138491,1.1539 z"
       id="path449-3" />
    <path
       style="fill:#800080;stroke-width:0.969159"
       d="m 365.85755,678.40061 c 0,-0.29273 1.13479,-3.22838 2.52175,-6.52366 1.38697,-3.29527 4.07356,-11.67747 5.9702,-18.62711 l 3.44845,-12.63569 0.41132,-33.92057 c 0.26099,-21.52383 0.005,-37.99378 -0.70104,-45.0659 -2.62404,-26.29166 -7.3824,-49.78302 -11.86294,-58.5656 -1.08633,-2.12939 -3.39634,-8.24939 -5.13334,-13.59998 -1.737,-5.3506 -4.98903,-13.65345 -7.22672,-18.45079 -4.10696,-8.80479 -9.71834,-23.11261 -9.71834,-24.77967 0,-0.54519 18.11373,-0.90305 45.70972,-0.90305 44.79239,0 45.9934,0.05 59.84557,2.49337 7.77472,1.37135 17.84289,3.54323 22.37371,4.8264 4.53082,1.28318 11.50876,3.00965 15.50654,3.83661 3.99779,0.82696 9.92365,2.74219 13.1686,4.25606 7.50195,3.49989 27.03216,16.54987 39.91984,26.67419 15.70282,12.33586 19.27273,14.77833 32.71269,22.38149 13.42942,7.59721 18.47187,9.31665 24.82361,8.46471 3.55663,-0.47705 3.89851,-0.34472 3.37834,1.3077 -1.94018,6.16343 -2.54978,15.05902 -2.54978,37.20781 v 24.9286 l -10.41846,0.50015 c -5.87856,0.28221 -11.89657,1.12429 -13.81052,1.93244 -5.53161,2.33568 -34.23159,31.53668 -44.55294,45.3307 -4.98556,6.66297 -12.42029,15.4132 -16.52164,19.44497 -12.45288,12.24162 -21.19285,15.81408 -61.28347,25.04966 -20.53847,4.73141 -25.11945,4.98192 -28.15038,1.53939 -1.17377,-1.33317 -3.53405,-2.69255 -5.24506,-3.02086 -2.61796,-0.50233 -3.5954,-0.11246 -6.16815,2.46029 l -3.05721,3.05721 -19.02999,-0.27864 c -10.46649,-0.15326 -20.22932,0.0568 -21.69517,0.46668 -1.46586,0.40994 -2.66519,0.50583 -2.66519,0.21309 z"
       id="path520"
       transform="scale(0.26458333)" />
    <path
       style="fill:url(#linearGradient1393);fill-opacity:1;stroke-width:0.256423"
       d="m 96.942269,179.67777 c 0,-0.0774 0.30024,-0.85417 0.66721,-1.72605 0.36697,-0.87187 1.0778,-3.08966 1.57961,-4.92842 l 0.912411,-3.3432 0.10883,-8.97481 c 0.0691,-5.69485 0.001,-10.05252 -0.18549,-11.92369 -0.694281,-6.95633 -1.953261,-13.17176 -3.138731,-15.49548 -0.28743,-0.5634 -0.898619,-2.18265 -1.3582,-3.59833 -0.459582,-1.41568 -1.320015,-3.61247 -1.91207,-4.88177 -1.086633,-2.3296 -2.571311,-6.11521 -2.571311,-6.55629 0,-0.14425 4.792591,-0.23893 12.094032,-0.23893 11.85132,0 12.16909,0.0132 15.83414,0.6597 2.05706,0.36284 4.72093,0.93748 5.91971,1.27699 1.19878,0.33951 3.04503,0.7963 4.10277,1.0151 1.05775,0.2188 2.62563,0.72554 3.48419,1.12609 1.98489,0.92601 7.15226,4.37882 10.56213,7.05754 4.1547,3.26386 5.09924,3.9101 8.65523,5.92177 3.5532,2.0101 4.88735,2.46503 6.56791,2.23962 0.94103,-0.12622 1.03148,-0.0912 0.89386,0.346 -0.51334,1.63074 -0.67463,3.98436 -0.67463,9.84456 v 6.5957 l -2.75655,0.13233 c -1.55537,0.0747 -3.14764,0.29747 -3.65404,0.51129 -1.46357,0.61798 -9.05711,8.34408 -11.78796,11.99375 -1.3191,1.76291 -3.2862,4.07807 -4.37135,5.14481 -3.29483,3.23893 -5.60728,4.18414 -16.21459,6.62772 -5.43413,1.25186 -6.64619,1.31814 -7.44812,0.4073 -0.31056,-0.35273 -0.93505,-0.7124 -1.38775,-0.79927 -0.69267,-0.13291 -0.95129,-0.0298 -1.63199,0.65095 l -0.80889,0.80889 -5.03502,-0.0737 c -2.76926,-0.0406 -5.352341,0.015 -5.740181,0.12347 -0.38784,0.10847 -0.70516,0.13384 -0.70516,0.0564 z"
       id="path520-6" />
    <path
       style="fill:#008000;stroke-width:0.969159"
       d="m 453.08187,432.12091 c -8.90124,-1.71793 -24.01667,-3.15432 -34.40515,-3.26947 l -7.75327,-0.0859 5.47918,-5.04439 c 3.01354,-2.77442 9.42065,-7.40976 14.23802,-10.30075 4.81736,-2.89099 12.60059,-8.20961 17.29606,-11.81916 4.69547,-3.60955 10.71782,-7.82378 13.38301,-9.36495 2.66519,-1.54117 8.91629,-5.3374 13.89133,-8.43607 10.25473,-6.38709 12.87797,-6.80616 18.6585,-2.98079 8.66179,5.73211 5.44776,12.56306 -11.63834,24.73549 -10.58044,7.53769 -20.38276,20.23515 -20.41744,26.44777 -0.005,0.93281 -0.33656,1.65667 -0.73634,1.60856 -0.39978,-0.0481 -3.99778,-0.71875 -7.99556,-1.49031 z"
       id="path591"
       transform="scale(0.26458333)" />
    <path
       style="fill:#008000;stroke-width:0.969159"
       d="m 449.20523,739.86408 c -3.46474,-2.13089 -9.35238,-4.7447 -13.08365,-5.80848 -7.77737,-2.21732 -13.30765,-4.76844 -17.36967,-8.01265 l -2.83229,-2.26206 1.1701,-7.17823 c 0.64356,-3.94802 2.06195,-10.51018 3.15199,-14.58259 l 1.98188,-7.40437 7.43357,-0.62249 c 4.08847,-0.34237 9.06904,-0.8648 11.06793,-1.16096 l 3.63435,-0.53847 0.006,6.62702 c 0.01,10.43622 6.03527,30.44294 12.02656,39.93376 1.37746,2.18204 2.50448,4.19408 2.50448,4.47119 0,1.44501 -4.08725,-0.0149 -9.69159,-3.46167 z"
       id="path593"
       transform="scale(0.26458333)" />
    <path
       style="fill:#ff0000;stroke-width:0.969159"
       d="m 491.75674,755.6098 c -6.34396,-4.02322 -18.68384,-19.24381 -23.66702,-29.19201 -3.7476,-7.48156 -7.19268,-20.46787 -7.90048,-29.78106 l -0.60359,-7.94192 2.80535,-0.64283 c 1.54295,-0.35356 6.80416,-1.63063 11.69159,-2.83794 l 8.88623,-2.1951 4.2675,4.9649 c 6.06745,7.05899 15.93672,22.03256 19.48533,29.56295 2.71245,5.75601 3.06046,7.53899 3.38759,17.35562 0.35361,10.61108 0.28511,11.05528 -2.2746,14.74893 -2.89393,4.17594 -8.3118,8.71564 -10.40163,8.71564 -0.73076,0 -3.28508,-1.24073 -5.67627,-2.75718 z"
       id="path733"
       transform="scale(0.26458333)" />
    <path
       style="fill:url(#linearGradient1428);fill-opacity:1;stroke-width:0.256423"
       d="m 129.83815,199.73682 c -1.67851,-1.06448 -4.94344,-5.0916 -6.2619,-7.72372 -0.99155,-1.9795 -1.90306,-5.41546 -2.09034,-7.87958 l -0.1597,-2.1013 0.74225,-0.17008 c 0.40824,-0.0935 1.80027,-0.43143 3.0934,-0.75087 l 2.35115,-0.58079 1.12911,1.31363 c 1.60535,1.8677 4.21659,5.82945 5.15549,7.82187 0.71767,1.52294 0.80975,1.99469 0.8963,4.59201 0.0936,2.80751 0.0754,2.92504 -0.60182,3.90232 -0.76568,1.10488 -2.19916,2.30601 -2.7521,2.30601 -0.19334,0 -0.86917,-0.32828 -1.50184,-0.7295 z"
       id="path733-0" />
    <path
       style="fill:#000080;stroke-width:0.969159"
       d="m 659.77932,678.00096 c -9.89663,-2.49707 -15.53105,-11.53081 -26.94527,-43.20177 -4.65202,-12.90792 -6.57149,-19.4541 -8.24112,-28.10561 -1.11358,-5.77021 -5.00247,-13.13642 -8.70341,-16.48573 -1.82134,-1.64828 -1.9258,-3.00072 -1.90099,-24.61145 0.0372,-32.40044 0.8238,-39.1479 5.72832,-49.13802 2.16536,-4.41067 3.93701,-8.42801 3.93701,-8.92742 0,-0.4994 0.65106,-1.44833 1.44679,-2.10873 3.33238,-2.76564 3.52997,-7.80505 0.84043,-21.43464 -2.04061,-10.34101 -2.57496,-15.92859 -2.6312,-27.51367 -0.0646,-13.30561 0.1961,-15.60203 3.07676,-27.10238 2.05626,-8.20911 4.13702,-14.10728 6.00217,-17.01385 2.67697,-4.1717 3.39268,-4.62074 11.48873,-7.20808 8.08118,-2.58259 9.36987,-2.72492 20.13012,-2.22334 12.22532,0.56987 17.39478,1.97295 23.74481,6.44471 4.75937,3.35161 7.0682,6.95994 10.646,16.63803 2.95023,7.9805 3.0407,8.72559 3.81668,31.43407 1.01964,29.83916 1.48366,35.7047 3.75683,47.4888 1.02824,5.33037 2.34871,14.27086 2.93438,19.86776 0.58567,5.59689 1.70638,13.44708 2.49047,17.44486 2.32119,11.83495 5.10344,33.599 5.82302,45.55048 0.49903,8.28841 0.26009,13.94319 -0.9322,22.06028 -3.4302,23.35282 -8.47067,33.55199 -27.50417,55.6535 -5.33069,6.18995 -8.44375,8.93234 -11.75821,10.35818 -5.34339,2.29867 -12.8916,3.23268 -17.24595,2.13402 z"
       id="path804"
       transform="scale(0.26458333)" />
    <path
       style="fill:url(#linearGradient1463);fill-opacity:1;stroke-width:0.256423"
       d="m 174.53998,179.69002 c -2.61848,-0.66068 -4.10926,-3.05086 -7.12927,-11.43047 -1.23085,-3.41522 -1.73871,-5.14723 -2.18046,-7.43628 -0.29464,-1.5267 -1.32357,-3.47567 -2.30278,-4.36184 -0.4819,-0.43611 -0.50953,-0.79395 -0.50297,-6.51178 0.01,-8.57262 0.21796,-10.35789 1.51562,-13.00111 0.57292,-1.16698 1.04167,-2.22991 1.04167,-2.36204 0,-0.13213 0.17225,-0.38321 0.38279,-0.55794 0.88169,-0.73174 0.93397,-2.06508 0.22237,-5.67124 -0.53992,-2.73606 -0.6813,-4.21444 -0.69618,-7.27966 -0.0171,-3.52045 0.0519,-4.12804 0.81406,-7.17084 0.54406,-2.17199 1.09459,-3.73255 1.58808,-4.50158 0.70828,-1.10376 0.89764,-1.22257 3.03972,-1.90714 2.13815,-0.68331 2.47912,-0.72097 5.3261,-0.58826 3.23461,0.15078 4.60237,0.52201 6.28248,1.70516 1.25925,0.88678 1.87013,1.84149 2.81675,4.40215 0.78058,2.11151 0.80452,2.30865 1.00983,8.31693 0.26978,7.89494 0.39255,9.44687 0.994,12.56475 0.27205,1.41032 0.62143,3.77583 0.77639,5.25667 0.15495,1.48085 0.45148,3.55788 0.65893,4.61562 0.61415,3.13133 1.35029,8.88974 1.54068,12.0519 0.13203,2.19298 0.0688,3.68914 -0.24665,5.83678 -0.90757,6.17877 -2.2412,8.8773 -7.27714,14.72499 -1.41041,1.63776 -2.23408,2.36335 -3.11103,2.7406 -1.41377,0.60819 -3.4109,0.85532 -4.56299,0.56463 z"
       id="path804-6" />
    <path
       style="fill:#000000;stroke-width:0.264583"
       id="path1516"
       d="m 53.823549,162.2669 c 0.560359,-0.0706 1.121365,-0.0913 1.685732,-0.10563 0.739883,-0.0165 1.479947,-0.0212 2.219989,-0.0231 0.657148,-7.9e-4 1.314299,-1.3e-4 1.97145,1.5e-4 0.625615,2.6e-4 1.251233,2.6e-4 1.876848,2.6e-4 0.733063,4e-5 1.466125,3e-5 2.199188,3e-5 1.024549,-1e-5 2.049097,-1e-5 3.073649,-1e-5 0.927856,0 1.855713,0 2.78357,0 0.893551,0.0202 1.784175,-0.009 2.667061,-0.1506 0.636182,-0.11173 1.245425,-0.31482 1.824278,-0.59795 0.389866,-0.21635 0.799692,-0.39053 1.202076,-0.58175 0.69741,-0.351 1.355138,-0.77251 2.010373,-1.19526 0.447768,-0.3173 0.935961,-0.58702 1.361996,-0.93507 0.429257,-0.35069 0.448291,-0.39694 0.828918,-0.79993 0.592725,-0.69073 1.114552,-1.43898 1.652042,-2.17287 0.23322,-0.35243 0.517912,-0.66637 0.712076,-1.04502 0.16968,-0.33091 0.267298,-0.63566 0.389062,-0.97978 0.279022,-0.97751 0.645377,-1.9257 1.006822,-2.87468 0.246226,-0.71231 0.537874,-1.40731 0.788834,-2.1178 0.12125,-0.35693 0.06238,-0.19407 0.173773,-0.4896 0.986906,-2.65064 -2.761666,-4.04634 -3.748575,-1.3957 v 0 c -0.144814,0.39207 -0.07941,0.2063 -0.198056,0.55665 -0.238247,0.67916 -0.521634,1.34141 -0.754036,2.02283 -0.373401,0.98054 -0.753909,1.96015 -1.04181,2.97018 -0.03685,0.10541 -0.08188,0.20831 -0.110543,0.31623 -0.0034,0.0128 0.04487,0.002 0.03751,0.0128 -0.151598,0.2258 -0.339114,0.42819 -0.482129,0.66051 -0.448299,0.61213 -0.886068,1.23356 -1.363845,1.82285 -0.08087,0.0922 -0.147476,0.19889 -0.241549,0.2776 -0.365654,0.30595 -0.795681,0.53248 -1.180899,0.81092 -0.510812,0.33043 -1.022511,0.66119 -1.56139,0.94457 -0.436907,0.20919 -0.882804,0.39968 -1.307357,0.63386 -0.130723,0.12634 -0.499023,0.15295 -0.67143,0.21365 -0.655209,0.12951 -1.329616,0.0832 -1.993199,0.0934 -0.92786,0 -1.855716,0 -2.783576,0 -1.024548,0 -2.0491,0 -3.073651,0 -0.732978,0 -1.465953,1e-5 -2.198928,-2e-5 -0.625139,-4e-5 -1.250275,-1.2e-4 -1.875412,-2.6e-4 -0.661257,-2.7e-4 -1.322514,-8e-4 -1.983772,-1.3e-4 -0.770723,0.002 -1.54147,0.007 -2.312027,0.0244 -0.448683,0.0116 -0.897355,0.019 -1.344591,0.0601 -0.07046,0.006 -0.140576,0.0163 -0.210791,0.0251 -0.0423,0.005 -0.09163,-0.007 -0.126733,0.0171 -0.02719,0.0187 0.06603,0.001 0.09905,0.002 -2.828406,0 -2.828406,3.99997 0,3.99997 z" />
    <path
       style="fill:#ececec;stroke-width:0.264583"
       id="path1622"
       sodipodi:type="arc"
       sodipodi:cx="68.700989"
       sodipodi:cy="124.11977"
       sodipodi:rx="5.6810899"
       sodipodi:ry="6.9620833"
       sodipodi:start="0"
       sodipodi:end="6.2830422"
       sodipodi:arc-type="slice"
       d="m 74.382079,124.11977 a 5.6810899,6.9620833 0 0 1 -5.680887,6.96208 5.6810899,6.9620833 0 0 1 -5.681293,-6.96159 5.6810899,6.9620833 0 0 1 5.68048,-6.96258 5.6810899,6.9620833 0 0 1 5.6817,6.96109 l -5.68109,0.001 z" />
    <path
       style="fill:#1a1a1a;stroke-width:0.264583"
       id="path1676"
       sodipodi:type="arc"
       sodipodi:cx="70.470123"
       sodipodi:cy="127.41065"
       sodipodi:rx="1.4074017"
       sodipodi:ry="1.4018574"
       sodipodi:start="0"
       sodipodi:end="6.2830422"
       sodipodi:arc-type="slice"
       d="m 71.877525,127.41065 a 1.4074017,1.4018574 0 0 1 -1.407351,1.40186 1.4074017,1.4018574 0 0 1 -1.407452,-1.40176 1.4074017,1.4018574 0 0 1 1.40725,-1.40196 1.4074017,1.4018574 0 0 1 1.407553,1.40166 l -1.407402,2e-4 z" />
  </g>
</svg>
