<?xml version="1.0" encoding="UTF-8" standalone="no"?>
<!-- Created with Inkscape (http://www.inkscape.org/) -->

<svg
   width="210mm"
   height="297mm"
   viewBox="0 0 210 297"
   version="1.1"
   id="svg37"
   inkscape:version="1.2.1 (9c6d41e, 2022-07-14)"
   sodipodi:docname="slimak.svg"
   xmlns:inkscape="http://www.inkscape.org/namespaces/inkscape"
   xmlns:sodipodi="http://sodipodi.sourceforge.net/DTD/sodipodi-0.dtd"
   xmlns="http://www.w3.org/2000/svg"
   xmlns:svg="http://www.w3.org/2000/svg">
  <sodipodi:namedview
     id="namedview39"
     pagecolor="#505050"
     bordercolor="#ffffff"
     borderopacity="1"
     inkscape:showpageshadow="0"
     inkscape:pageopacity="0"
     inkscape:pagecheckerboard="1"
     inkscape:deskcolor="#505050"
     inkscape:document-units="mm"
     showgrid="false"
     inkscape:zoom="0.7071068"
     inkscape:cx="500.63159"
     inkscape:cy="492.85341"
     inkscape:window-width="1920"
     inkscape:window-height="1025"
     inkscape:window-x="0"
     inkscape:window-y="0"
     inkscape:window-maximized="1"
     inkscape:current-layer="layer1" />
  <defs
     id="defs34" />
  <g
     inkscape:label="Warstwa 1"
     inkscape:groupmode="layer"
     id="layer1">
    <path
       sodipodi:type="spiral"
       style="fill:none;fill-rule:evenodd;stroke:#000000;stroke-width:0.264583"
       id="path357"
       sodipodi:cx="122.9123"
       sodipodi:cy="80.911827"
       sodipodi:expansion="1"
       sodipodi:revolution="3"
       sodipodi:radius="54.046761"
       sodipodi:argument="-18.233494"
       sodipodi:t0="0.087599292"
       d="m 119.87507,84.543673 c -4.35229,-0.666395 -5.50846,-6.064449 -4.0496,-9.558403 2.57021,-6.15562 10.42704,-7.541384 15.90271,-4.615251 7.98375,4.266422 9.62518,14.842998 5.18091,22.247013 -5.90202,9.832588 -19.27795,11.730618 -28.59132,5.746564 -11.692675,-7.512812 -13.847264,-23.721975 -6.31222,-34.935622 9.11118,-13.559257 28.17114,-15.970414 41.27993,-6.877878 15.42986,10.702483 18.09766,32.62352 7.44353,47.624234 -12.28938,17.30311 -37.07805,20.22764 -53.968536,8.00919 C 77.58228,98.310157 74.400924,70.649428 88.185627,51.870677 103.64093,30.816083 134.17687,27.377822 154.84277,42.730173 c 21.58316,16.033759 26.37371,46.925678 12.18034,69.411257"
       transform="translate(-16.5824,58.003525)" />
    <path
       style="fill:#1a1a1a;stroke-width:0.264583"
       d="m 150.68318,170.0779 c -21.49406,-2.22353 -21.49406,-2.22353 -21.49406,-2.22353 z"
       id="path543" />
    <path
       style="fill:#1a1a1a;stroke-width:0.264583"
       d="m 150.42026,170.18823 -21.85149,-1.77605 0.37352,-0.42581 21.76866,1.85322 z"
       id="path547" />
    <path
       style="fill:#c87137;stroke-width:0.0906592"
       d="m 101.04809,177.38816 c -2.882954,-0.22705 -5.154103,-0.58244 -7.434062,-1.16327 -1.989032,-0.50672 -3.012242,-0.8362 -4.850276,-1.56182 -8.023709,-3.16759 -14.829242,-8.96192 -19.357176,-16.48098 -8.465629,-14.05798 -8.065838,-32.31964 1.012937,-46.2689 3.050651,-4.68723 7.410098,-9.13345 12.102427,-12.34333 2.226358,-1.522981 5.189331,-3.154526 7.718698,-4.250256 l 1.068919,-0.463058 h 18.028643 18.02864 l 0.98348,0.416131 c 10.49954,4.442535 19.23471,12.713643 24.4731,23.172963 2.81017,5.61098 4.4983,11.45889 5.25525,18.20485 0.19707,1.75636 0.27773,6.94948 0.13838,8.90906 -0.50926,7.16089 -2.35935,13.94927 -5.4909,20.14726 -0.96963,1.91911 -2.19715,4.03259 -2.34558,4.03851 -0.0575,0.002 -4.82434,-0.39515 -10.59308,-0.88321 l -10.4886,-0.88737 1.33646,-1.36061 c 2.08875,-2.12651 3.67129,-4.15925 5.09367,-6.54274 2.60796,-4.37019 4.15868,-8.98865 4.8199,-14.35496 0.18658,-1.51425 0.15689,-6.6277 -0.0474,-8.15934 -0.84952,-6.36983 -3.11454,-11.90612 -6.8237,-16.67884 -0.92477,-1.18992 -3.05277,-3.41209 -4.25338,-4.44156 -4.62186,-3.96309 -9.93391,-6.33459 -16.18269,-7.22457 -1.61541,-0.23007 -6.35444,-0.23241 -7.96813,-0.004 -5.494228,0.77791 -10.363894,2.81872 -14.424733,6.04521 -1.084045,0.86132 -3.143771,2.89067 -3.958201,3.89984 -3.241921,4.01711 -5.120145,8.35603 -5.847421,13.50825 -0.161761,1.14594 -0.164325,5.55117 -0.0039,6.66346 0.424511,2.94292 1.117251,5.28626 2.27807,7.70604 1.847522,3.85125 4.526674,6.95328 7.990666,9.25191 2.835555,1.88162 5.949677,3.03887 9.422629,3.50158 1.28162,0.17076 4.43492,0.14439 5.74351,-0.048 7.61143,-1.11918 13.62244,-6.04378 15.68397,-12.84932 1.78048,-5.87774 0.36492,-12.22239 -3.60879,-16.17483 -0.55144,-0.54849 -1.33991,-1.2366 -1.75215,-1.52914 -0.95094,-0.67482 -2.56026,-1.49259 -3.55554,-1.80674 -1.5579,-0.49174 -2.07838,-0.56256 -4.125,-0.56131 -1.7708,10e-4 -1.97211,0.0184 -2.8806,0.24809 -3.27742,0.82853 -5.63708,2.6738 -6.961126,5.44364 -0.594352,1.24335 -0.746332,1.97394 -0.748832,3.59969 -0.0019,1.16173 0.03184,1.5309 0.19408,2.1305 0.428516,1.58374 1.386948,2.99969 2.524718,3.72993 0.44816,0.28763 1.6717,0.7577 1.97222,0.7577 0.08,0 0.14267,-0.0761 0.14267,-0.17335 0,-0.13223 -0.088,-0.18821 -0.37082,-0.236 -0.20396,-0.0345 -0.7008,-0.2278 -1.10409,-0.42966 -1.03117,-0.51611 -1.7552,-1.26674 -2.280897,-2.36467 -0.493276,-1.03023 -0.677056,-1.74856 -0.74771,-2.92256 -0.145108,-2.41109 0.734356,-4.66509 2.521817,-6.4632 1.97804,-1.98984 4.6499,-3.02941 7.7839,-3.02856 2.64551,7.9e-4 4.87275,0.68705 7.16692,2.20854 1.02859,0.68216 2.81289,2.43615 3.50197,3.44248 3.23689,4.72714 3.61774,11.12185 0.98507,16.53978 -1.50563,3.09851 -4.05937,5.80678 -7.18815,7.62309 -4.61633,2.67986 -10.56547,3.38263 -15.93359,1.88222 -3.901919,-1.09059 -7.016414,-2.96593 -9.928548,-5.97829 -3.448106,-3.56679 -5.548447,-7.99552 -6.359221,-13.40888 -0.166457,-1.11142 -0.166587,-5.68671 -1.8e-4,-6.79945 0.61331,-4.10136 1.955787,-7.71315 4.040238,-10.86981 4.617574,-6.9928 12.157297,-11.42641 20.904771,-12.29269 1.23654,-0.12246 4.58667,-0.12214 5.80248,5.3e-4 9.67273,0.97612 18.03911,6.20085 23.22529,14.50397 2.63424,4.21747 4.27784,9.11421 4.83833,14.41484 0.162,1.532 0.18539,4.98275 0.0443,6.52747 -0.86734,9.49274 -5.25253,17.83776 -12.60514,23.98751 -6.61315,5.53128 -15.46462,8.62142 -24.47348,8.54395 -0.97482,-0.008 -1.93558,-0.0281 -2.13503,-0.0438 z"
       id="path701" />
    <path
       style="fill:#c87137;stroke-width:0.0906592"
       d="m 91.846169,94.66194 c 0.224383,-0.09999 1.183106,-0.440791 2.130496,-0.757333 9.563985,-3.195537 20.249025,-3.293165 29.872255,-0.272944 1.21772,0.382177 3.35439,1.140439 3.35439,1.190405 0,0.01897 -8.04714,0.0316 -17.88255,0.02808 l -17.882557,-0.0064 z"
       id="path772" />
    <path
       style="fill:#c87137;stroke-width:0.0906592"
       d="m 105.11178,94.78858 c 1.83613,-0.01371 4.81429,-0.01371 6.61813,1.6e-5 1.80385,0.01373 0.30156,0.02495 -3.33841,0.02495 -3.63997,-8e-6 -5.11585,-0.01125 -3.27972,-0.02495 z"
       id="path774" />
    <path
       style="fill:#c87137;stroke-width:0.00103353"
       d="M 109.22077,94.8533 V 94.85 l 0.84664,7.94e-4 c 0.46564,2.64e-4 1.13142,7.93e-4 1.47949,7.93e-4 h 0.63287 v 0.0026 0.0026 h -1.4795 -1.4795 z"
       id="path776" />
    <path
       style="fill:#c87137;stroke-width:0.00103353"
       d="m 109.6515,94.849596 -0.43073,-2.6e-4 V 94.55323 94.257125 h 1.4795 1.4795 v 0.296624 0.296622 l -1.04878,-2.57e-4 c -0.57682,-1.4e-4 -1.2426,-2.64e-4 -1.47949,-5.29e-4 z"
       id="path778" />
    <path
       style="fill:#c87137;stroke-width:0.00103353"
       d="m 110.36366,94.850633 c 0.008,-1.75e-4 0.0212,-1.75e-4 0.0289,0 0.008,1.74e-4 10e-4,2.64e-4 -0.0148,2.64e-4 -0.0159,0 -0.0223,-1.43e-4 -0.0142,-2.64e-4 z"
       id="path780" />
    <path
       style="fill:#c87137;stroke-width:0.00103353"
       d="m 109.6515,94.849596 -0.43073,-2.6e-4 V 94.55323 94.257125 h 1.4795 1.4795 v 0.296624 0.296622 l -1.04878,-2.57e-4 c -0.57682,-1.4e-4 -1.2426,-2.64e-4 -1.47949,-5.29e-4 z"
       id="path782" />
    <path
       style="fill:#000000;stroke-width:0.264583"
       d="m 150.54321,170.3256 17.2434,1.58534 4.82483,4.88943 1.5622,8.42753 -2.58627,6.75776 -7.03933,4.31721 -18.27918,4.06584 -15.06851,-0.0936 -15.54972,-0.73382 -15.16208,-0.67182 H 83.307504 l -9.292997,-0.28946 -21.364125,-1.10178 -10.880371,-3.93704 -4.220188,-6.52259 -1.158748,-6.52036 0.06692,-4.73863 0.633119,-15.32991 1.635721,-6.64468 3.723769,-1.93372 4.404858,-0.90525 3.934452,-0.37479 3.428174,2.95384 2.560786,5.59514 1.298098,5.50665 2.379885,1.92478 6.405417,0.30528 6.048351,-1.63146 0.860399,-0.479 0.33044,1.46373 -3.577635,1.68657 -5.104688,0.37967 H 62.31955 l -4.830609,-1.02875 -1.575191,-2.694 -1.120812,-3.64289 -0.680704,-3.17795 -1.244886,-3.56108 -2.206958,-1.15163 -3.05353,-0.72365 -4.489643,1.32454 -1.822492,0.7862 -0.985761,1.25947 -1.085591,2.38937 -0.37991,2.27903 -0.665779,2.5645 -0.487698,3.0374 -0.18895,3.34014 0.29369,2.80682 0.46772,3.35202 v 1.80189 l -0.196638,2.57206 0.365276,4.00358 1.325549,1.96475 1.193215,2.81185 1.862638,3.13275 2.213416,1.39682 5.465983,1.70071 6.770425,1.12832 8.093022,0.62884 7.135418,-0.15243 9.698337,0.69842 h 6.084373 l 5.16649,0.0935 8.6856,0.32305 7.9385,-0.0268 6.35436,0.15473 7.76278,0.25502 8.13266,0.36386 h 4.93421 l 10.57263,0.008 7.63412,-1.60619 8.22816,-2.46396 3.37069,-1.91614 3.78168,-3.63285 0.77658,-5.53607 -0.64039,-5.15231 -4.08923,-2.81265 -2.87138,-1.82125 -6.59985,-0.83522 -5.59451,-0.49793 h -3.6747 l -0.0584,-1.946 z"
       id="path901" />
    <path
       style="fill:#000000;stroke-width:0.264583"
       d="m 150.51116,170.09184 -0.0234,0.58396 -2.48156,-0.14873 0.0136,-0.70552 z"
       id="path957" />
    <path
       style="fill:#000000;stroke-width:0.264583"
       d="m 73.771069,164.80811 0.152683,-0.16469 1.026459,1.14326 -0.876832,0.45736 z"
       id="path959" />
    <path
       style="fill:#806600;stroke-width:0.0935442"
       d="m 128.55163,198.08101 c -8.00709,-0.38466 -18.31884,-0.656 -22.35709,-0.58828 -2.29177,0.0384 -4.40024,2.6e-4 -8.185132,-0.14762 -2.803991,-0.10966 -7.581768,-0.22284 -10.617282,-0.25151 -5.03981,-0.0476 -5.917182,-0.0804 -10.102787,-0.37726 -4.48796,-0.31833 -4.66376,-0.32383 -8.418991,-0.26366 -3.724116,0.0597 -3.943805,0.053 -7.57709,-0.22889 -3.308522,-0.25673 -4.142531,-0.35608 -7.202913,-0.85806 -3.412612,-0.55975 -3.499834,-0.57961 -6.220698,-1.4165 -2.732111,-0.84035 -2.770757,-0.8558 -3.885229,-1.55304 l -1.12567,-0.70425 -0.947169,-1.59705 c -0.53789,-0.90694 -1.20651,-2.20334 -1.547357,-3.00019 -0.378717,-0.88539 -0.840586,-1.76649 -1.251654,-2.38777 l -0.651459,-0.98461 -0.174096,-2.00881 c -0.14941,-1.72397 -0.158838,-2.19496 -0.06649,-3.32157 0.158909,-1.93868 0.13593,-2.59633 -0.168222,-4.8144 -0.460465,-3.35799 -0.515371,-4.21724 -0.39452,-6.17392 0.124606,-2.01747 0.416584,-3.86823 0.938609,-5.94957 0.205156,-0.81796 0.443135,-1.91967 0.528844,-2.44822 0.194969,-1.20236 0.971497,-2.97892 1.72397,-3.94414 0.46501,-0.59648 0.54253,-0.65236 1.414036,-1.01921 0.50713,-0.21347 1.923415,-0.68289 3.147301,-1.04315 l 2.225246,-0.65501 1.513195,0.36155 c 1.292608,0.30885 1.660789,0.43975 2.525696,0.89797 0.556877,0.29504 1.059101,0.58456 1.116052,0.64339 0.215556,0.22265 1.351053,3.80904 1.633197,5.15834 0.161374,0.77175 0.558982,2.26612 0.883573,3.32083 0.549532,1.78563 0.643853,2.00872 1.369994,3.2403 l 0.77983,1.32263 2.479236,0.5257 c 2.383655,0.50544 2.533324,0.52568 3.882398,0.52511 0.771739,-2.6e-4 2.601079,-0.0909 4.065196,-0.20138 l 2.662028,-0.2008 1.687782,-0.78863 c 0.928281,-0.43375 1.906136,-0.89819 2.173013,-1.0321 l 0.485232,-0.24346 1.120127,1.07994 c 5.167929,4.9825 12.090964,8.58003 19.31706,10.03803 4.821584,0.97285 10.049724,1.05333 14.887554,0.22918 5.81405,-0.99046 11.65293,-3.47178 16.20471,-6.88646 0.65699,-0.49286 1.4471,-1.11497 1.7558,-1.38246 l 0.56126,-0.48634 9.5832,0.78131 c 5.27076,0.42971 9.60042,0.79851 9.62146,0.81955 0.0211,0.021 0.061,0.48287 0.0887,1.02629 l 0.0504,0.98802 h 1.98416 c 2.39744,0 5.72087,0.28134 10.56894,0.89469 l 3.36587,0.42583 1.59198,1.01857 c 0.87561,0.56022 2.43389,1.5998 3.46288,2.31017 l 1.87089,1.29159 0.31626,2.56385 0.31627,2.56385 -0.38071,2.73528 -0.3807,2.73529 -1.24519,1.20716 c -2.47761,2.40198 -2.5314,2.4449 -4.33214,3.45714 l -1.68379,0.94651 -4.11596,1.2246 c -3.63071,1.08022 -4.56382,1.31851 -7.91497,2.02124 l -3.79902,0.79666 -7.84725,-0.013 c -6.00068,-0.01 -8.66169,-0.0521 -11.30838,-0.17927 z"
       id="path1086" />
    <ellipse
       style="fill:#f9f9f9;stroke-width:0.264583"
       id="path1623"
       cx="42.992771"
       cy="158.82024"
       rx="1.243631"
       ry="1.1568874" />
    <ellipse
       style="fill:#f9f9f9;stroke-width:0.264583"
       id="path1625"
       cx="50.430931"
       cy="159.08031"
       rx="1.451625"
       ry="1.2270684" />
    <ellipse
       style="fill:#0000ff;stroke-width:0.264583"
       id="path1681"
       cx="42.933949"
       cy="158.77257"
       rx="0.25420308"
       ry="0.20026258" />
    <ellipse
       style="fill:#000000;stroke-width:0.264583"
       id="path1683"
       cx="50.447746"
       cy="159.03491"
       rx="0.25093651"
       ry="0.20419717" />
    <path
       style="fill:#000000;stroke-width:0.264583"
       d="m 43.526453,152.74412 c 0.01921,-0.46993 0.09262,-0.9843 0.02979,-1.44922 -0.02326,-0.17202 -0.220654,-0.66168 -0.282953,-0.88793 -0.06235,-0.22643 0.0098,-0.53642 -0.188854,-0.70759 -0.119536,-0.10299 -0.265785,-0.17237 -0.383636,-0.27728 -0.141157,-0.12566 -0.195384,-0.26057 -0.375864,-0.33374 -0.105698,-0.0428 -0.22416,-0.0489 -0.329126,-0.0935 -0.165833,-0.0705 -0.307308,-0.20677 -0.498652,-0.21149 -0.0603,-0.002 0,0.12063 0,0.18095 0,0.40784 0.0026,0.37068 -0.09684,0.76358 -0.02397,0.0948 -0.01969,0.19592 -0.04895,0.28922 -0.03807,0.12137 -0.124814,0.22585 -0.151595,0.3502 -0.07447,0.34577 0.03884,0.98324 0,1.37417 -0.0109,0.10975 -0.06027,0.19306 -0.09355,0.29177 -0.02895,0.0859 0.0222,0.18405 0,0.27193 -0.196529,0.77771 -0.03502,-0.46349 -0.16203,0.44989 -0.0231,0.16613 0,0.36129 0,0.52832"
       id="path1851" />
    <path
       style="fill:#000000;stroke-width:0.264583"
       d="m 50.802122,149.52225 -2.749921,1.26417"
       id="path1853" />
    <path
       style="fill:#000000;stroke-width:0.264583"
       d="m 51.114984,150.08958 -0.399791,1.06474"
       id="path1855" />
    <path
       style="fill:#000000;stroke-width:0.264583"
       d="m 49.758875,151.57211 -1.311481,-0.30713"
       id="path1857" />
    <path
       style="fill:#000000;stroke-width:0.264583"
       d="m 47.583421,151.64258 1.248955,-4.64122"
       id="path1859" />
    <path
       style="fill:#000000;stroke-width:0.264583"
       id="path1861"
       d="m 53.069529,152.66428 c -0.06108,-0.32345 -0.08995,-0.6512 -0.11127,-0.97925 -0.03579,-0.37622 -0.04556,-0.74566 -0.03182,-1.1231 0.02103,-0.23488 0.01725,-0.4705 0.01376,-0.70596 0.0024,-0.16515 -0.02164,-0.29501 -0.130257,-0.42617 -0.0046,-0.006 -0.132553,-0.12583 -0.142499,-0.1352 -1.118097,-0.85324 -2.474627,-1.47907 -3.643453,-2.14204 -0.02726,-0.0154 -0.06206,-0.009 -0.09296,-0.014 -0.03165,-0.005 -0.06309,-0.0118 -0.09464,-0.0178 -0.105484,-10e-4 -0.207748,-0.0492 -0.312087,-0.0542 -0.151847,-0.007 -0.0033,0.0226 -0.145015,-0.0128 -0.01508,-0.007 -0.106172,-0.0526 -0.126889,-0.0482 -0.20588,0.0435 -0.292015,0.45613 -0.34603,0.62404 -0.09164,0.27435 -0.259673,0.5125 -0.371218,0.77751 -0.05392,0.1281 -0.08606,0.23385 -0.12921,0.36476 -0.04966,0.20105 -0.140708,0.41138 -0.123118,0.62325 0.0041,0.0491 0.01569,0.0972 0.02355,0.1458 0.03224,0.12555 0.0569,0.25387 0.09415,0.37815 0.04295,0.1433 0.04581,0.10155 0.07443,0.26111 0.0086,0.0479 0.01156,0.0967 0.01736,0.14501 0.0062,0.18813 -7.94e-4,0.37722 -0.02445,0.56396 0,0 3.476757,1.81922 3.476757,1.81922 v 0 c 0.007,-0.0755 0.01852,-0.1507 0.02162,-0.22648 0.0057,-0.13855 -0.0093,-0.2782 -0.0065,-0.41678 -0.0019,-0.15322 0.0078,-0.32051 -0.02334,-0.47171 -0.02453,-0.11908 -0.09102,-0.22961 -0.115257,-0.34918 -0.02138,-0.0808 -0.05075,-0.16631 -0.0539,-0.25072 -0.0047,-0.12486 0.01987,-0.24999 0.03593,-0.373 0.03272,-0.14794 0.03505,-0.18018 0.08752,-0.32583 0.09667,-0.26833 0.233252,-0.52175 0.364583,-0.77398 0.03485,-0.0572 0.06792,-0.11551 0.104547,-0.17158 0.01442,-0.0221 0.02506,-0.0749 0.04842,-0.0626 0.02334,0.0122 -0.02064,0.0491 -0.02439,0.0752 -0.01201,0.0834 0.100269,0.0508 0.146534,0.0617 0.127648,0.0119 0.03185,-0.003 0.145251,0.0302 0.08813,0.0261 0.181864,0.0323 0.263472,0.0797 0.02603,0.0135 0.05337,0.0248 0.07813,0.0406 0.02569,0.0164 0.09909,0.0706 0.07268,0.0554 -5.639292,-3.24272 -4.230989,-2.48318 -3.0763,-1.77967 0.112898,0.0611 0.05706,0.0271 0.16709,0.10274 0.01087,0.006 0.217725,0.0848 0.218868,0.0862 0.01551,0.0198 0.01156,0.0489 0.01736,0.0734 0.0527,0.22901 0.0448,0.46241 0.06193,0.69566 0.0033,0.0739 0.0141,0.30637 0.01561,0.37421 0.0057,0.25612 -0.01863,0.51184 -8.5e-5,0.76777 0.01222,0.17333 0.0109,0.16482 0.02622,0.33967 0.014,0.15986 0.03532,0.32278 0.0305,0.48366 -0.0011,0.0313 -0.0071,0.0621 -0.01069,0.0932 0,0 3.529113,1.79818 3.529113,1.79818 z" />
    <path
       style="fill:#000000;stroke-width:0.264583"
       id="path1863"
       d="m 45.137202,153.43198 c -0.05743,-0.3259 -0.06557,-0.65934 -0.03726,-0.98852 0.04829,-0.39716 0.02649,-0.79731 0.0016,-1.19518 -0.01749,-0.27181 -0.04183,-0.54335 -0.11053,-0.80736 -0.04494,-0.11885 -0.05173,-0.15945 -0.131413,-0.26712 -0.08257,-0.11157 -0.254347,-0.27017 -0.37565,-0.34077 -1.146916,-0.66753 -2.299822,-1.32472 -3.449736,-1.98707 -0.09414,-0.0253 -0.230576,-0.12431 -0.333081,-0.0598 -0.145492,0.0916 -0.302503,0.35139 -0.402,0.4907 -0.141936,0.20472 -0.32625,0.37755 -0.474263,0.57708 -0.151574,0.20433 -0.261948,0.43583 -0.376613,0.66159 -0.03263,0.0658 -0.06488,0.13188 -0.09788,0.19754 -0.08643,0.17193 -0.08055,0.16651 -0.178768,0.32105 -0.07552,0.11883 -0.16034,0.23065 -0.238268,0.34784 -0.153948,0.20593 -0.181962,0.45748 -0.224629,0.7027 -0.07582,0.43573 -0.006,-0.003 -0.07232,0.4265 -0.01532,0.36191 -0.08887,0.72237 -0.06224,1.08498 0.209457,1.42249 2.043581,1.3851 3.476101,2.19547 0.0093,0.005 0.202488,-0.0288 0.228994,-0.0317 0.07252,-0.009 0.145193,-0.014 0.218176,-0.0166 0.02585,-8e-4 0.05218,-0.007 0.07757,-0.002 0.0231,0.004 0.04261,0.02 0.06392,0.03 0.03381,0.002 0.06762,0.005 0.101428,0.007 0.04078,0.003 0.08155,0.006 0.122327,0.01 0,0 -3.131978,-2.32975 -3.131978,-2.32975 v 0 c -0.04286,-0.006 -0.08572,-0.0124 -0.128585,-0.0187 -0.04074,-0.007 -0.08098,-0.0183 -0.122222,-0.0199 -0.03261,-0.001 -0.06467,0.009 -0.09722,0.0114 -0.09557,0.007 -0.193243,8e-4 -0.287803,-0.0131 -0.04583,-0.013 -0.06262,-0.0125 -0.100258,-0.0448 -0.01405,-0.0121 -0.05218,-0.0514 -0.03617,-0.0421 1.109287,0.6429 2.219404,1.28459 3.318631,1.94454 0.02138,0.0128 -0.04996,0.006 -0.07469,0.003 -0.02487,-0.003 -0.04811,-0.0141 -0.07217,-0.0212 -0.01905,-0.0227 -0.04196,-0.0426 -0.05715,-0.068 -0.135324,-0.22638 -0.05329,-0.6381 -0.03764,-0.88917 0.03707,-0.33122 0.07412,-0.67548 0.269449,-0.9565 0.176382,-0.30273 0.342352,-0.61245 0.465264,-0.94139 0.08539,-0.18346 0.100852,-0.23015 0.207185,-0.4039 0.165619,-0.27064 0.377598,-0.50977 0.602845,-0.73178 0.0524,-0.0443 0.101023,-0.0935 0.15721,-0.13295 0.02846,-0.0199 0.06033,-0.0491 0.09467,-0.0437 0.02106,0.003 0.0062,0.0435 0.01778,0.0614 0.04732,0.0729 0.15888,0.0767 0.218864,0.13335 -1.06757,-0.61874 -2.136384,-1.23534 -3.20271,-1.85623 -0.04561,-0.0266 0.09429,0.0475 0.14042,0.0732 0.151518,0.0842 0.313875,0.16614 0.431524,0.29595 0.01699,0.028 0.03638,0.0547 0.05094,0.0841 0.03781,0.0763 0.04633,0.12596 0.06744,0.20944 0.03657,0.14467 0.06372,0.29082 0.08985,0.43773 0.03286,0.25511 0.07931,0.51377 0.06207,0.77212 -0.0041,0.0611 -0.01595,0.12135 -0.02381,0.18204 -0.0072,0.0557 -0.01421,0.11138 -0.02132,0.16707 -0.01894,0.17919 -0.02858,0.35522 -0.02593,0.53558 0.0016,0.10198 0.01236,0.22856 0.0019,0.33149 -0.0041,0.0405 -0.01619,0.0798 -0.02426,0.11975 0,0 3.522565,1.79483 3.522565,1.79483 z" />
    <ellipse
       style="fill:#0000ff;stroke-width:0.264583"
       id="path1881"
       cx="43.006706"
       cy="158.92978"
       rx="1.5233619"
       ry="1.4319847" />
    <ellipse
       style="fill:#0000ff;stroke-width:0.264583"
       id="path1883"
       cx="42.702206"
       cy="159.15533"
       rx="2.6341929"
       ry="2.5061746" />
    <path
       style="fill:#0000ff;stroke-width:0.264583"
       id="path1927"
       sodipodi:type="arc"
       sodipodi:cx="50.565018"
       sodipodi:cy="159.79616"
       sodipodi:rx="2.7774606"
       sodipodi:ry="2.4539883"
       sodipodi:start="0"
       sodipodi:end="6.2690214"
       sodipodi:arc-type="slice"
       d="m 53.342478,159.79616 a 2.7774606,2.4539883 0 0 1 -2.767625,2.45397 2.7774606,2.4539883 0 0 1 -2.787226,-2.43659 2.7774606,2.4539883 0 0 1 2.747886,-2.47123 2.7774606,2.4539883 0 0 1 2.806687,2.41909 l -2.777182,0.0348 z" />
  </g>
</svg>
