<?xml version="1.0" encoding="UTF-8" standalone="no"?>
<!-- Created with Inkscape (http://www.inkscape.org/) -->

<svg
   width="210mm"
   height="297mm"
   viewBox="0 0 210 297"
   version="1.1"
   id="svg5"
   inkscape:version="1.2.1 (9c6d41e, 2022-07-14)"
   sodipodi:docname="zaba.svg"
   xmlns:inkscape="http://www.inkscape.org/namespaces/inkscape"
   xmlns:sodipodi="http://sodipodi.sourceforge.net/DTD/sodipodi-0.dtd"
   xmlns="http://www.w3.org/2000/svg"
   xmlns:svg="http://www.w3.org/2000/svg">
  <sodipodi:namedview
     id="namedview7"
     pagecolor="#505050"
     bordercolor="#ffffff"
     borderopacity="1"
     inkscape:showpageshadow="0"
     inkscape:pageopacity="0"
     inkscape:pagecheckerboard="1"
     inkscape:deskcolor="#505050"
     inkscape:document-units="mm"
     showgrid="false"
     inkscape:zoom="1.0318223"
     inkscape:cx="32.951409"
     inkscape:cy="592.64078"
     inkscape:window-width="1920"
     inkscape:window-height="1025"
     inkscape:window-x="0"
     inkscape:window-y="0"
     inkscape:window-maximized="1"
     inkscape:current-layer="layer1" />
  <defs
     id="defs2" />
  <g
     inkscape:label="Warstwa 1"
     inkscape:groupmode="layer"
     id="layer1">
    <path
       style="fill:#008000;stroke-width:0.264583"
       id="path163"
       sodipodi:type="arc"
       sodipodi:cx="105.26157"
       sodipodi:cy="122.22275"
       sodipodi:rx="34.233509"
       sodipodi:ry="23.03405"
       sodipodi:start="0"
       sodipodi:end="6.2830422"
       sodipodi:arc-type="slice"
       d="M 139.49508,122.22275 A 34.233509,23.03405 0 0 1 105.2628,145.2568 34.233509,23.03405 0 0 1 71.028065,122.2244 34.233509,23.03405 0 0 1 105.2579,99.188698 34.233509,23.03405 0 0 1 139.49508,122.21945 l -34.23351,0.003 z" />
    <path
       style="fill:#008000;stroke-width:0.264583"
       id="path169"
       sodipodi:type="arc"
       sodipodi:cx="73.159103"
       sodipodi:cy="125.60516"
       sodipodi:rx="9.1325188"
       sodipodi:ry="7.2616262"
       sodipodi:start="0"
       sodipodi:end="6.2830422"
       sodipodi:arc-type="slice"
       d="m 82.291622,125.60516 a 9.1325188,7.2616262 0 0 1 -9.132192,7.26163 9.1325188,7.2616262 0 0 1 -9.132845,-7.26111 9.1325188,7.2616262 0 0 1 9.131538,-7.26214 9.1325188,7.2616262 0 0 1 9.133499,7.26058 l -9.132519,0.001 z" />
    <path
       style="fill:#008000;stroke-width:0.264583"
       id="path173"
       sodipodi:type="arc"
       sodipodi:cx="138.81668"
       sodipodi:cy="127.19668"
       sodipodi:rx="8.3924885"
       sodipodi:ry="6.1923146"
       sodipodi:start="0"
       sodipodi:end="6.2830422"
       sodipodi:arc-type="slice"
       d="m 147.20917,127.19668 a 8.3924885,6.1923146 0 0 1 -8.39219,6.19231 8.3924885,6.1923146 0 0 1 -8.39279,-6.19187 8.3924885,6.1923146 0 0 1 8.39159,-6.19276 8.3924885,6.1923146 0 0 1 8.39339,6.19143 l -8.39249,8.9e-4 z" />
    <rect
       style="fill:#008000;stroke-width:0.264583"
       id="rect175"
       width="26.756924"
       height="24.778828"
       x="92.467514"
       y="141.86755" />
    <path
       style="fill:#008000;stroke-width:0.264583"
       id="path235"
       sodipodi:type="arc"
       sodipodi:cx="87.730812"
       sodipodi:cy="162.41864"
       sodipodi:rx="8.0994577"
       sodipodi:ry="6.1700501"
       sodipodi:start="0"
       sodipodi:end="6.2830422"
       sodipodi:arc-type="slice"
       d="m 95.83027,162.41864 a 8.0994577,6.1700501 0 0 1 -8.099168,6.17005 8.0994577,6.1700501 0 0 1 -8.099748,-6.16961 8.0994577,6.1700501 0 0 1 8.098589,-6.17049 8.0994577,6.1700501 0 0 1 8.100327,6.16917 l -8.099458,8.8e-4 z" />
    <path
       style="fill:#008000;stroke-width:0.264583"
       id="path237"
       sodipodi:type="arc"
       sodipodi:cx="121.92901"
       sodipodi:cy="162.23666"
       sodipodi:rx="7.0627632"
       sodipodi:ry="6.2475734"
       sodipodi:start="0"
       sodipodi:end="6.2830422"
       sodipodi:arc-type="slice"
       d="m 128.99177,162.23666 a 7.0627632,6.2475734 0 0 1 -7.06251,6.24758 7.0627632,6.2475734 0 0 1 -7.06301,-6.24713 7.0627632,6.2475734 0 0 1 7.062,-6.24802 7.0627632,6.2475734 0 0 1 7.06352,6.24668 l -7.06276,8.9e-4 z" />
    <path
       style="fill:#008000;stroke-width:0.264583"
       id="path239"
       sodipodi:type="arc"
       sodipodi:cx="79.167412"
       sodipodi:cy="167.32982"
       sodipodi:rx="7.5417376"
       sodipodi:ry="2.5128889"
       sodipodi:start="0"
       sodipodi:end="6.2830422"
       sodipodi:arc-type="slice"
       d="m 86.709149,167.32982 a 7.5417376,2.5128889 0 0 1 -7.541467,2.51289 7.5417376,2.5128889 0 0 1 -7.542008,-2.51271 7.5417376,2.5128889 0 0 1 7.540928,-2.51307 7.5417376,2.5128889 0 0 1 7.542547,2.51253 l -7.541737,3.6e-4 z" />
    <path
       style="fill:#008000;stroke-width:0.264583"
       id="path241"
       sodipodi:type="arc"
       sodipodi:cx="128.15863"
       sodipodi:cy="168.27887"
       sodipodi:rx="7.9245801"
       sodipodi:ry="2.1211984"
       sodipodi:start="0"
       sodipodi:end="6.2830422"
       sodipodi:arc-type="slice"
       d="m 136.08321,168.27887 a 7.9245801,2.1211984 0 0 1 -7.9243,2.1212 7.9245801,2.1211984 0 0 1 -7.92486,-2.12105 7.9245801,2.1211984 0 0 1 7.92373,-2.12135 7.9245801,2.1211984 0 0 1 7.92543,2.1209 l -7.92458,3e-4 z" />
    <path
       style="fill:#00ff00;stroke-width:0.264583"
       id="path295"
       sodipodi:type="arc"
       sodipodi:cx="96.420494"
       sodipodi:cy="156.16679"
       sodipodi:rx="5.3682241"
       sodipodi:ry="14.499511"
       sodipodi:start="0"
       sodipodi:end="6.2830422"
       sodipodi:arc-type="slice"
       d="m 101.78872,156.16679 a 5.3682241,14.499511 0 0 1 -5.368034,14.49951 5.3682241,14.499511 0 0 1 -5.368416,-14.49847 5.3682241,14.499511 0 0 1 5.367648,-14.50055 5.3682241,14.499511 0 0 1 5.368802,14.49744 l -5.368226,0.002 z" />
    <path
       style="fill:#00ff00;stroke-width:0.264583"
       id="path297"
       sodipodi:type="arc"
       sodipodi:cx="117.83089"
       sodipodi:cy="156.8992"
       sodipodi:rx="5.1519837"
       sodipodi:ry="14.036289"
       sodipodi:start="0"
       sodipodi:end="6.2830422"
       sodipodi:arc-type="slice"
       d="m 122.98287,156.8992 a 5.1519837,14.036289 0 0 1 -5.1518,14.03629 5.1519837,14.036289 0 0 1 -5.15217,-14.03529 5.1519837,14.036289 0 0 1 5.15143,-14.03729 5.1519837,14.036289 0 0 1 5.15254,14.03428 l -5.15198,0.002 z" />
    <path
       style="fill:#f9f9f9;stroke-width:0.264583"
       id="path351"
       sodipodi:type="arc"
       sodipodi:cx="93.966843"
       sodipodi:cy="104.5155"
       sodipodi:rx="5.7038965"
       sodipodi:ry="11.418585"
       sodipodi:start="0"
       sodipodi:end="6.2830422"
       sodipodi:arc-type="slice"
       d="m 99.670739,104.5155 a 5.7038965,11.418585 0 0 1 -5.703692,11.41859 5.7038965,11.418585 0 0 1 -5.704101,-11.41777 5.7038965,11.418585 0 0 1 5.703284,-11.419402 5.7038965,11.418585 0 0 1 5.704509,11.416952 l -5.703896,0.002 z" />
    <path
       style="fill:#f9f9f9;stroke-width:0.264583"
       id="path353"
       sodipodi:type="arc"
       sodipodi:cx="119.86205"
       sodipodi:cy="104.69326"
       sodipodi:rx="6.6416545"
       sodipodi:ry="11.278058"
       sodipodi:start="0"
       sodipodi:end="6.1534633"
       sodipodi:arc-type="arc"
       d="m 126.50371,104.69326 a 6.6416545,11.278058 0 0 1 -6.4263,11.27213 6.6416545,11.278058 0 0 1 -6.84305,-10.54114 6.6416545,11.278058 0 0 1 5.98254,-11.955713 6.6416545,11.278058 0 0 1 7.231,9.765813"
       sodipodi:open="true" />
    <path
       style="fill:#0000ff;stroke-width:0.264583"
       id="path407"
       sodipodi:type="arc"
       sodipodi:cx="93.58931"
       sodipodi:cy="103.84084"
       sodipodi:rx="2.0531318"
       sodipodi:ry="3.3986433"
       sodipodi:start="0"
       sodipodi:end="6.1534633"
       sodipodi:open="true"
       sodipodi:arc-type="arc"
       d="m 95.642442,103.84084 a 2.0531318,3.3986433 0 0 1 -1.98656,3.39686 2.0531318,3.3986433 0 0 1 -2.115387,-3.17657 2.0531318,3.3986433 0 0 1 1.849377,-3.60286 2.0531318,3.3986433 0 0 1 2.235319,2.94293" />
    <path
       style="fill:#0000ff;stroke-width:0.264583"
       id="path409"
       sodipodi:type="arc"
       sodipodi:cx="119.63354"
       sodipodi:cy="104.75172"
       sodipodi:rx="2.0597942"
       sodipodi:ry="3.1745143"
       sodipodi:start="0"
       sodipodi:end="6.1534633"
       sodipodi:open="true"
       sodipodi:arc-type="arc"
       d="m 121.69333,104.75172 a 2.0597942,3.1745143 0 0 1 -1.993,3.17284 2.0597942,3.1745143 0 0 1 -2.12226,-2.96709 2.0597942,3.1745143 0 0 1 1.85538,-3.36526 2.0597942,3.1745143 0 0 1 2.24257,2.74886" />
    <path
       style="fill:#d40000;stroke-width:0.264583"
       id="path465"
       sodipodi:type="arc"
       sodipodi:cx="83.668709"
       sodipodi:cy="127.88212"
       sodipodi:rx="2.9105387"
       sodipodi:ry="3.1872506"
       sodipodi:start="0"
       sodipodi:end="6.2830422"
       sodipodi:arc-type="slice"
       d="m 86.579247,127.88212 a 2.9105387,3.1872506 0 0 1 -2.910434,3.18725 2.9105387,3.1872506 0 0 1 -2.910643,-3.18702 2.9105387,3.1872506 0 0 1 2.910226,-3.18748 2.9105387,3.1872506 0 0 1 2.910851,3.18679 l -2.910538,4.6e-4 z" />
    <path
       style="fill:#d40000;stroke-width:0.264583"
       id="path467"
       sodipodi:type="arc"
       sodipodi:cx="127.50544"
       sodipodi:cy="128.20563"
       sodipodi:rx="3.058635"
       sodipodi:ry="2.6356835"
       sodipodi:start="0"
       sodipodi:end="6.2830422"
       sodipodi:arc-type="slice"
       d="m 130.56407,128.20563 a 3.058635,2.6356835 0 0 1 -3.05852,2.63568 3.058635,2.6356835 0 0 1 -3.05875,-2.63549 3.058635,2.6356835 0 0 1 3.05831,-2.63588 3.058635,2.6356835 0 0 1 3.05896,2.63531 l -3.05863,3.8e-4 z" />
    <path
       style="fill:#000000;stroke-width:0.264583"
       d="m 128.47379,130.96379 c -0.47742,-0.007 -0.70309,0.65879 -1.10631,0.79215 -0.13408,0.0443 -0.30559,-0.036 -0.44773,-0.0121 -0.24319,0.0409 -0.86608,0.12746 -1.08273,0.27198 -0.62482,0.41678 -1.2296,0.89175 -1.87251,1.29342 -0.38247,0.23895 -0.90453,0.40573 -1.30064,0.60269 -0.22253,0.11065 -0.41942,0.27102 -0.64772,0.36919 -0.16887,0.0726 -0.37329,0.0224 -0.54396,0.0907 -0.25973,0.10389 -0.55504,0.36334 -0.82725,0.46206 -1.18946,0.4314 -1.60108,0.13375 -2.87146,0.29799 -0.34578,0.0447 -0.65729,0.23528 -0.99427,0.32475 -0.48522,0.12884 -1.01097,0.18525 -1.49474,0.27919 -0.22455,0.0436 -0.43516,0.15058 -0.66183,0.18132 -0.85453,0.11586 -1.85739,-0.16711 -2.6929,0 -0.79515,0.15903 -1.63692,0.0907 -2.45506,0.0907 -1.20233,0 -2.40466,0 -3.60698,0 -1.55639,0 -3.1343,0.0677 -4.68693,0 -0.33098,-0.0145 -0.65602,-0.0961 -0.98617,-0.12361 -0.16436,-0.0137 -0.334288,0.0379 -0.494798,0 -0.10604,-0.0251 -0.17495,-0.13176 -0.27198,-0.18132 -0.13098,-0.0669 -0.29988,0.0406 -0.44125,0 -0.10684,-0.0307 -0.1708,-0.15674 -0.27883,-0.18296 -0.29793,-0.0723 -0.61385,-0.042 -0.91358,-0.10655 -0.21189,-0.0456 -0.3976,-0.18539 -0.61129,-0.22164 -0.22842,-0.0388 -0.46616,0.0358 -0.69505,0 -0.44458,-0.0696 -0.904872,-0.36139 -1.340003,-0.47225 -0.236948,-0.0604 -0.490186,-0.0449 -0.724511,-0.1148 -1.180328,-0.52556 -0.194244,-0.1529 -1.274355,-0.40973 -0.219729,-0.0523 -0.436444,-0.11768 -0.650209,-0.19058 -0.09058,-0.0309 -0.190894,-0.0422 -0.271227,-0.0942 -0.01564,-0.0101 0.01842,-0.0531 0,-0.0559 -0.118123,-0.0184 -0.245006,0.0371 -0.358653,0 -0.202451,-0.0661 -0.36308,-0.2291 -0.563509,-0.30111 -0.256821,-0.0923 -0.642747,0.0533 -0.909238,0 -0.08382,-0.0168 -0.0984,-0.16059 -0.181319,-0.18132 -0.08795,-0.022 -0.183081,0.0178 -0.271979,0 -0.261223,-0.0522 -0.494789,-0.1998 -0.750221,-0.27544 -0.497226,-0.14723 -1.29849,-0.14826 -1.728515,-0.36834 -0.186309,-0.0953 -0.582668,-0.31196 -0.731083,-0.45914 -0.04658,-0.0462 -0.0422,-0.12921 -0.08831,-0.17587 -0.02003,-0.0203 -0.05952,0.0117 -0.08551,0 -0.100457,-0.0452 -0.150283,-0.16156 -0.232825,-0.23449 -0.21893,-0.19346 -0.459526,-0.36293 -0.66693,-0.56871 -0.07942,-0.0788 -0.115472,-0.19269 -0.187116,-0.27862 -0.09066,-0.0907 -0.181319,-0.18132 -0.271979,-0.27198 -0.02604,0 -0.05847,0.0171 -0.07811,0 -0.03375,-0.0294 0,-0.0895 0,-0.13419 0,-0.26543 -0.04007,-0.567 0,-0.83012 0.113599,-0.74601 0.02458,-0.0162 0.271979,-0.63462 0.02244,-0.0561 -0.02458,-0.1261 0,-0.18132 0.01095,-0.0246 0.05381,0 0.08072,0 0.458259,0 -0.191127,-0.0211 0.71019,0.88343 0.477691,0.47941 1.166947,0.90746 1.736605,1.30403 0.15303,0.10653 -0.182139,-0.24481 0.118325,0 0.13253,0.10798 0.230835,0.25377 0.362638,0.36263 0.143835,0.11881 0.279381,0.0778 0.412517,0.14575 0.490551,0.25048 0.983975,0.58271 1.532199,0.75529 0.445101,0.14012 0.939081,-0.0261 1.354291,0.10361 0.0826,0.0258 0.125421,0.17112 0.205423,0.20541 0.363773,0.15592 0.960816,0.4153 1.304864,0.50632 0.38472,0.10179 1.240909,-0.005 1.531646,0.0942 0.386342,0.13141 0.996785,0.37296 1.383785,0.44949 0.14987,0.0296 0.30758,-0.0249 0.45831,0 0.0913,0.0151 0.39059,0.25613 0.44606,0.26987 0.41679,0.37993 0.90347,0.0439 1.34563,0.13107 0.0999,0.0197 0.15837,0.22606 0.25647,0.25647 0.24002,0.0744 0.50595,-0.0411 0.75384,0 0.19662,0.0326 0.37339,0.14196 0.56651,0.19124 0.0859,0.0219 0.184188,-0.0341 0.266078,0 0.0753,0.0313 0.16478,0.0222 0.23752,0.0592 0.13923,0.0708 0.22888,0.22553 0.37482,0.28116 0.19579,0.0746 0.41871,-0.0654 0.60884,0 0.59315,0.20417 0.12574,0.21029 0.8264,0.27461 0.35659,0.0327 0.83947,-0.0885 1.19346,0 0.0829,0.0207 0.10704,0.13902 0.18132,0.18132 0.17706,0.10082 2.12894,0 2.65519,0 0.55368,0 1.10736,0 1.66103,0 0.0749,0 0.726,0.059 0.90293,0 0.1426,-0.0475 0.27903,-0.21334 0.43788,-0.25705 0.2971,-0.0818 0.61771,-0.0308 0.91998,-0.0907 0.32448,-0.0643 0.69505,-0.15124 0.99294,-0.27198 0.27347,-0.11084 -0.36012,-0.0324 0.23389,-0.14322 0.0908,-0.0169 0.18469,0 0.27703,0 0.0907,-0.0302 0.17927,-0.0675 0.27198,-0.0907 0.14585,-0.0365 0.30185,0.0187 0.45102,0 0.33387,-0.0419 0.66661,-0.11519 0.99725,-0.18132 0.25263,-0.0505 0.57813,0.0832 0.82064,0 0.13255,-0.0454 0.23812,-0.15918 0.37468,-0.19062 0.14725,-0.0339 0.3031,0.0165 0.45329,0 0.12671,-0.0139 0.24573,-0.07 0.37152,-0.0907 0.31803,-0.0522 1.01686,0.11953 1.25621,0 0.0967,-0.0483 0.1693,-0.14007 0.2697,-0.18017 0.0561,-0.0224 0.12168,0.01 0.18132,0 0.34993,-0.0574 0.69121,-0.16604 1.02156,-0.27552 0.0287,-0.01 0.0604,0 0.0907,0 0.0554,0 0.11371,0.0175 0.16633,0 0.11474,-0.0381 0.24112,-0.22612 0.3546,-0.26394 0.20135,-0.0671 0.61122,0 0.81166,0 0.43186,0 1.13135,0.13792 1.53426,0 0.0187,-0.006 0.0279,-0.0279 0.0418,-0.0418 0.0555,-0.0278 0.10562,-0.0717 0.16663,-0.0833 0.47022,-0.0893 0.9577,0.046 1.42954,-0.0907 0.31384,-0.0909 0.73185,-0.21748 1.03232,-0.42 0.13963,-0.0941 0.22248,-0.25616 0.35719,-0.35719 0.0541,-0.0405 0.13353,-0.0429 0.18132,-0.0907 0.0478,-0.0478 0.0429,-0.13351 0.0906,-0.18128 0.34891,-0.34889 0.88879,-0.53354 1.28174,-0.82218 0.0581,-0.0427 0.24017,-0.26131 0.33338,-0.29099 0.11762,-0.0374 0.27463,0.0315 0.39418,0 0.19838,-0.0522 0.36014,-0.19866 0.55046,-0.27526 0.12756,-0.0514 0.39248,0 0.52309,0"
       id="path667" />
  </g>
</svg>
